<?xml version="1.0" encoding="utf-8"?>
<!-- Generator: Adobe Illustrator 27.9.0, SVG Export Plug-In . SVG Version: 6.00 Build 0)  -->
<svg version="1.1" id="Layer_1" xmlns="http://www.w3.org/2000/svg" xmlns:xlink="http://www.w3.org/1999/xlink" x="0px" y="0px"
	 viewBox="0 0 72 42" style="enable-background:new 0 0 72 42;" xml:space="preserve">
<style type="text/css">
	.st0{fill:#43211B;}
</style>
<path class="st0" d="M19.3,24.6l-2.1,1.2c-1,0.6-1.3,1.9-0.8,2.9l3.1,5.4c0.6,1,1.9,1.3,2.9,0.8l2.1-1.2c1.3-0.7,2.9-0.7,4.2,0l0,0
	c1.3,0.7,2.1,2.1,2.1,3.6v2.6c0,1.2,0.9,2.1,2.1,2.1h6.3c1.2,0,2.1-0.9,2.1-2.1v-2.6c0-1.5,0.8-2.9,2.1-3.6l0,0
	c1.3-0.7,2.9-0.7,4.2,0l2.1,1.2c1,0.6,2.3,0.2,2.9-0.8l3.1-5.4c0.6-1,0.2-2.3-0.8-2.9l0,0l-2.1-1.2c-1.3-0.7-2.1-2.1-2.1-3.6l0,0
	c0-1.5,0.8-2.9,2.1-3.6l2.1-1.2c1-0.6,1.3-1.9,0.8-2.9L52.5,8c-0.6-1-1.9-1.3-2.9-0.8l-2.1,1.2c-1.3,0.7-2.9,0.7-4.2,0l0,0
	c-1.3-0.7-2.1-2.1-2.1-3.6V2.1c0-1.2-0.9-2.1-2.1-2.1h-6.3c-1.2,0-2.1,0.9-2.1,2.1v2.7c0,1.4-0.7,2.7-2,3.4l-0.3,0.2
	c-1.2,0.7-2.7,0.7-3.9,0l-2.2-1.3c-1-0.6-2.3-0.3-2.8,0.7l-3.1,5.4c-0.6,1-0.2,2.3,0.8,2.9l2.1,1.2c1.3,0.7,2.1,2.1,2.1,3.6l0,0
	C21.4,22.4,20.6,23.8,19.3,24.6L19.3,24.6z M36,14.7c3.5,0,6.3,2.8,6.3,6.3s-2.8,6.3-6.3,6.3s-6.3-2.8-6.3-6.3S32.5,14.7,36,14.7z"
	/>
</svg>
