<?xml version="1.0" encoding="utf-8"?>
<!-- Generator: Adobe Illustrator 27.9.0, SVG Export Plug-In . SVG Version: 6.00 Build 0)  -->
<svg version="1.1" id="Layer_1" xmlns="http://www.w3.org/2000/svg" xmlns:xlink="http://www.w3.org/1999/xlink" x="0px" y="0px"
	 viewBox="0 0 72 42" style="enable-background:new 0 0 72 42;" xml:space="preserve">
<style type="text/css">
	.st0{fill:#FF5E27;}
	.st1{fill:#FFFDF7;}
</style>
<g id="Logo">
	<g id="Logomark">
		<path class="st0" d="M19.3,13.1v15.8c0,2.6,1.4,5,3.6,6.3l10.4,6c1.7,1,3.7,1,5.4,0l10.4-6c2.3-1.3,3.6-3.7,3.6-6.3V13.1
			c0-2.6-1.4-5-3.6-6.3l-10.4-6c-1.7-1-3.7-1-5.4,0l-10.4,6C20.7,8.1,19.3,10.5,19.3,13.1z"/>
		<path class="st1" d="M48.7,20.6l-3.8-1.3c-1.4-0.5-2.4-1.7-2.7-3.1l-1.6-8c0-0.2-0.2-0.3-0.4-0.3c-0.2,0-0.4,0.1-0.4,0.3l-1.6,8
			c-0.3,1.5-1.3,2.6-2.7,3.1l-3.8,1.3c-0.2,0.1-0.3,0.2-0.3,0.4c0,0.2,0.1,0.3,0.3,0.4l3.8,1.3c1.4,0.5,2.4,1.7,2.7,3.1l1.6,8
			c0,0.2,0.2,0.3,0.4,0.3c0.2,0,0.4-0.1,0.4-0.3l1.6-8c0.3-1.5,1.3-2.6,2.7-3.1l3.8-1.3c0.2-0.1,0.3-0.2,0.3-0.4
			C49,20.8,48.9,20.7,48.7,20.6z"/>
		<path class="st1" d="M28.1,13.3l1.3,0.5c0.5,0.2,0.9,0.6,1,1.1l0.6,2.8c0,0.1,0.1,0.1,0.2,0.1c0.1,0,0.1,0,0.2-0.1l0.6-2.8
			c0.1-0.5,0.5-0.9,1-1.1l1.3-0.5c0.1,0,0.1-0.1,0.1-0.1c0-0.1,0-0.1-0.1-0.1l-1.3-0.5c-0.5-0.2-0.9-0.6-1-1.1l-0.6-2.8
			c0-0.1-0.1-0.1-0.2-0.1c-0.1,0-0.1,0-0.2,0.1l-0.6,2.8c-0.1,0.5-0.5,0.9-1,1.1L28.1,13C28.1,13,28,13,28,13.1
			C28,13.2,28.1,13.2,28.1,13.3"/>
		<path class="st1" d="M31.3,27.1l-1.8-0.6c-0.7-0.2-1.2-0.8-1.3-1.5l-0.8-3.8c0-0.1-0.1-0.2-0.2-0.2c-0.1,0-0.2,0.1-0.2,0.2
			L26.3,25c-0.1,0.7-0.6,1.3-1.3,1.5l-1.8,0.6c-0.1,0-0.1,0.1-0.1,0.2c0,0.1,0.1,0.2,0.1,0.2l1.8,0.6c0.7,0.2,1.2,0.8,1.3,1.5
			l0.8,3.8c0,0.1,0.1,0.2,0.2,0.2c0.1,0,0.2-0.1,0.2-0.2l0.8-3.8c0.1-0.7,0.6-1.3,1.3-1.5l1.8-0.6c0.1,0,0.1-0.1,0.1-0.2
			C31.4,27.2,31.4,27.1,31.3,27.1z"/>
	</g>
</g>
</svg>
