<?xml version="1.0" encoding="utf-8"?>
<!-- Generator: Adobe Illustrator 27.9.0, SVG Export Plug-In . SVG Version: 6.00 Build 0)  -->
<svg version="1.1" id="Layer_1" xmlns="http://www.w3.org/2000/svg" xmlns:xlink="http://www.w3.org/1999/xlink" x="0px" y="0px"
	 viewBox="0 0 82 42" style="enable-background:new 0 0 82 42;" xml:space="preserve">
<style type="text/css">
	.st0{fill:#FF5E27;}
</style>
<g>
	<path class="st0" d="M60.1,3.5C56.6,1.9,52.8,0.7,48.9,0c-0.1,0-0.1,0-0.2,0.1c-0.5,0.9-1,2-1.4,2.9c-4.2-0.6-8.4-0.6-12.6,0
		c-0.4-0.9-0.9-2-1.4-2.9C33.3,0,33.2,0,33.1,0c-3.9,0.7-7.7,1.9-11.2,3.5c0,0-0.1,0-0.1,0.1c-7.1,10.7-9.1,21.1-8.1,31.4
		c0,0.1,0,0.1,0.1,0.1c4.7,3.5,9.3,5.6,13.8,7c0.1,0,0.1,0,0.2-0.1c1.1-1.4,2-3,2.8-4.6c0-0.1,0-0.2-0.1-0.2c-1.5-0.6-2.9-1.3-4.3-2
		c-0.1-0.1-0.1-0.2,0-0.3c0.3-0.2,0.6-0.4,0.9-0.7c0,0,0.1-0.1,0.2,0c9,4.1,18.8,4.1,27.7,0c0.1,0,0.1,0,0.2,0
		c0.3,0.2,0.6,0.5,0.9,0.7c0.1,0.1,0.1,0.2,0,0.3c-1.4,0.8-2.8,1.5-4.3,2c-0.1,0-0.1,0.2-0.1,0.2c0.8,1.6,1.8,3.1,2.8,4.6
		c0,0.1,0.1,0.1,0.2,0.1c4.5-1.4,9.1-3.5,13.8-7c0,0,0.1-0.1,0.1-0.1C69.5,23,66.4,12.7,60.1,3.5C60.2,3.5,60.1,3.5,60.1,3.5z
		 M31.9,28.6c-2.7,0-5-2.5-5-5.6c0-3.1,2.2-5.6,5-5.6c2.8,0,5,2.5,5,5.6C36.8,26.2,34.6,28.6,31.9,28.6z M50.2,28.6
		c-2.7,0-5-2.5-5-5.6c0-3.1,2.2-5.6,5-5.6c2.8,0,5,2.5,5,5.6C55.1,26.2,53,28.6,50.2,28.6z"/>
</g>
</svg>
