<?xml version="1.0" encoding="utf-8"?>
<!-- Generator: Adobe Illustrator 27.9.0, SVG Export Plug-In . SVG Version: 6.00 Build 0)  -->
<svg version="1.1" id="Capa_1" xmlns="http://www.w3.org/2000/svg" xmlns:xlink="http://www.w3.org/1999/xlink" x="0px" y="0px"
	 viewBox="0 0 72 42" style="enable-background:new 0 0 72 42;" xml:space="preserve">
<style type="text/css">
	.st0{fill:#43211B;}
</style>
<g>
	<path class="st0" d="M36,0C24.4,0,15,9.4,15,21s9.4,21,21,21s21-9.4,21-21S47.6,0,36,0z M37.3,31.1c-0.4,0.3-0.9,0.6-1.5,0.6
		c-0.6,0-1-0.2-1.5-0.5c-0.4-0.3-0.6-0.9-0.6-1.5c0-0.6,0.2-1.1,0.6-1.5s0.9-0.6,1.5-0.6s1.1,0.2,1.5,0.6c0.4,0.4,0.6,0.9,0.6,1.5
		C37.9,30.1,37.7,30.6,37.3,31.1z M42.5,18.1c-0.3,0.6-0.7,1.1-1.1,1.5s-1.2,1.2-2.4,2.1c-0.3,0.3-0.6,0.5-0.8,0.8
		c-0.2,0.3-0.3,0.4-0.4,0.6c-0.1,0.2-0.2,0.3-0.3,0.5s-0.1,0.5-0.3,0.9c-0.2,0.9-0.8,1.5-1.6,1.5c-0.5,0-0.9-0.2-1.2-0.5
		c-0.3-0.3-0.5-0.8-0.5-1.4c0-0.8,0.1-1.5,0.3-2.1s0.6-1.1,0.9-1.5c0.4-0.4,0.9-0.9,1.6-1.5c0.6-0.5,1-0.9,1.3-1.2s0.5-0.6,0.7-0.9
		c0.2-0.3,0.3-0.7,0.3-1c0-0.8-0.3-1.4-0.9-1.9c-0.5-0.5-1.3-0.8-2.1-0.8c-1,0-1.8,0.3-2.2,0.8c-0.5,0.5-0.9,1.3-1.2,2.3
		c-0.3,1-0.9,1.5-1.8,1.5c-0.5,0-0.9-0.2-1.3-0.5c-0.3-0.3-0.5-0.8-0.5-1.2c0-0.9,0.3-1.8,0.9-2.7c0.6-0.9,1.4-1.6,2.5-2.2
		c1.1-0.6,2.4-0.9,3.8-0.9c1.4,0,2.6,0.3,3.6,0.8c1,0.5,1.8,1.2,2.4,2.1c0.6,0.9,0.9,1.8,0.9,2.8C43,16.8,42.9,17.5,42.5,18.1z"/>
</g>
</svg>
