<?xml version="1.0" encoding="utf-8"?>
<!-- Generator: Adobe Illustrator 27.9.0, SVG Export Plug-In . SVG Version: 6.00 Build 0)  -->
<svg version="1.1" id="Capa_1" xmlns="http://www.w3.org/2000/svg" xmlns:xlink="http://www.w3.org/1999/xlink" x="0px" y="0px"
	 viewBox="0 0 72 42" style="enable-background:new 0 0 72 42;" xml:space="preserve">
<style type="text/css">
	.st0{fill:#FF5E27;}
</style>
<g>
	<path class="st0" d="M36,0C24.4,0,15,9.4,15,21s9.4,21,21,21s21-9.4,21-21S47.6,0,36,0z M37.3,31c-0.4,0.4-0.9,0.6-1.5,0.6
		s-1.1-0.2-1.5-0.6s-0.6-0.9-0.6-1.5s0.2-1.1,0.6-1.5c0.4-0.4,0.9-0.6,1.5-0.6s1.1,0.2,1.5,0.6s0.6,0.9,0.6,1.5
		C37.9,30.2,37.7,30.7,37.3,31z M42.5,18.1c-0.3,0.6-0.7,1.1-1.1,1.5C41,20,40.2,20.8,39,21.8c-0.3,0.3-0.6,0.5-0.8,0.8
		c-0.2,0.2-0.3,0.4-0.4,0.6c-0.1,0.2-0.2,0.4-0.2,0.5c-0.1,0.2-0.1,0.5-0.2,1c-0.2,1-0.7,1.5-1.7,1.5c-0.5,0-0.9-0.2-1.2-0.5
		S34,24.9,34,24.3c0-0.8,0.1-1.5,0.4-2c0.2-0.6,0.6-1.1,1-1.5s0.9-0.9,1.6-1.5c0.6-0.5,1-0.9,1.3-1.2c0.3-0.3,0.5-0.6,0.7-0.9
		s0.3-0.7,0.3-1.1c0-0.7-0.3-1.4-0.8-1.9c-0.6-0.5-1.3-0.8-2.1-0.8c-1,0-1.8,0.3-2.3,0.8s-0.9,1.3-1.2,2.3c-0.3,1.1-0.9,1.6-1.8,1.6
		c-0.5,0-1-0.2-1.3-0.6c-0.4-0.4-0.5-0.8-0.5-1.2c0-0.9,0.3-1.8,0.9-2.7s1.4-1.7,2.5-2.3s2.4-0.9,3.8-0.9c1.4,0,2.5,0.3,3.6,0.7
		c1,0.5,1.8,1.2,2.4,2C42.7,14,43,15,43,16C43,16.8,42.8,17.5,42.5,18.1z"/>
</g>
</svg>
