<?xml version="1.0" encoding="utf-8"?>
<!-- Generator: Adobe Illustrator 27.9.0, SVG Export Plug-In . SVG Version: 6.00 Build 0)  -->
<svg version="1.1" id="Layer_1" xmlns="http://www.w3.org/2000/svg" xmlns:xlink="http://www.w3.org/1999/xlink" x="0px" y="0px"
	 viewBox="0 0 72 42" style="enable-background:new 0 0 72 42;" xml:space="preserve">
<style type="text/css">
	.st0{fill:#FF5E27;}
</style>
<path class="st0" d="M55.6,11c0,0.4,0,0.9,0,1.3C55.6,25.6,45.4,41,26.9,41v0c-5.5,0-10.9-1.6-15.5-4.5c0.8,0.1,1.6,0.1,2.4,0.1
	c4.5,0,9-1.5,12.5-4.3c-4.3-0.1-8.1-2.9-9.4-7c1.5,0.3,3.1,0.2,4.6-0.2c-4.7-1-8.1-5.1-8.1-9.9v-0.1c1.4,0.8,3,1.2,4.6,1.3
	c-4.4-3-5.8-8.9-3.1-13.5C19.9,9.2,27.5,13,35.6,13.4c-0.8-3.5,0.3-7.2,2.9-9.6C42.6-0.1,49,0.1,52.8,4.2c2.3-0.4,4.4-1.3,6.4-2.5
	c-0.8,2.3-2.3,4.3-4.4,5.6c2-0.2,4-0.8,5.8-1.6C59.3,7.8,57.5,9.5,55.6,11L55.6,11z"/>
</svg>
