<?xml version="1.0" encoding="utf-8"?>
<!-- Generator: Adobe Illustrator 28.0.0, SVG Export Plug-In . SVG Version: 6.00 Build 0)  -->
<svg version="1.1" id="Layer_1" xmlns="http://www.w3.org/2000/svg" xmlns:xlink="http://www.w3.org/1999/xlink" x="0px" y="0px"
	 viewBox="0 0 180 79" style="enable-background:new 0 0 180 79;" xml:space="preserve">
<style type="text/css">
	.st0{opacity:0.9;enable-background:new    ;}
	.st1{fill:#FFFFFF;}
	.st2{opacity:0.9;fill:#FFFFFF;enable-background:new    ;}
</style>
<g>
	<g class="st0">
		<path class="st1" d="M121.1,26.7V0.2H0v54h180V26.7H121.1z M144.1,30.6h13.5v1.8h-13.5V30.6z M144.1,39.4c0.7,0,12.3,0,12.3,0v1.8
			h-12.3V39.4z M102.2,4.2h2.1v17.9h11v1.8h-13.1V4.2z M95.1,32.4v-1.8h13.5v1.8H95.1z M107.4,39.4v1.8H95.1v-1.8H107.4z M89.9,4.2
			l9,19.7h-2.2L88.8,6.3L81,23.9h-2.2l9-19.7H89.9z M63.7,4.2h15.9V6h-6.9v17.9h-2.1V6h-6.9V4.2z M58.2,4.2h2.1v19.7h-2.1V4.2z
			 M28,4.2h2.1v19.7H28V4.2z M4.7,22.1h7.9c1.7,0,3.2-0.3,4.5-1c1.3-0.7,2.3-1.6,3-2.8c0.7-1.2,1.1-2.6,1.1-4.2c0-1.6-0.4-3-1.1-4.2
			c-0.7-1.2-1.7-2.2-3-2.8c-1.3-0.7-2.8-1-4.5-1H4.7V4.2h8c2.1,0,3.9,0.4,5.5,1.3c1.6,0.8,2.8,2,3.7,3.5c0.9,1.5,1.3,3.2,1.3,5.1
			c0,1.9-0.4,3.6-1.3,5.1c-0.9,1.5-2.1,2.7-3.7,3.5c-1.6,0.8-3.4,1.3-5.5,1.3h-8V22.1z M18.1,47.8c-0.5,0.8-1.4,1.5-2.5,1.9
			c-1.1,0.5-2.5,0.7-4.1,0.7c-1.5,0-2.9-0.2-4.2-0.7C6,49.3,5,48.7,4.2,47.9L5,46.3C5.8,47,6.7,47.6,7.9,48c1.2,0.4,2.4,0.7,3.7,0.7
			c1.8,0,3.1-0.3,4-1c0.9-0.6,1.3-1.5,1.3-2.5c0-0.8-0.2-1.4-0.7-1.9c-0.5-0.5-1.1-0.8-1.8-1.1c-0.7-0.3-1.7-0.5-2.9-0.8
			C10,41,8.8,40.7,7.9,40.3C7,40,6.3,39.4,5.7,38.7S4.7,37,4.7,35.8c0-1,0.3-1.9,0.8-2.7c0.5-0.8,1.3-1.5,2.4-2
			c1.1-0.5,2.4-0.7,4.1-0.7c1.1,0,2.2,0.2,3.3,0.5c1.1,0.3,2,0.7,2.8,1.3l-0.7,1.7c-0.8-0.5-1.7-1-2.6-1.2c-0.9-0.3-1.9-0.4-2.8-0.4
			c-1.7,0-3,0.3-3.9,1c-0.9,0.7-1.3,1.5-1.3,2.6c0,0.8,0.2,1.4,0.7,1.9s1.1,0.8,1.8,1.1c0.7,0.3,1.7,0.5,2.9,0.8
			c1.4,0.4,2.6,0.7,3.5,1.1c0.9,0.4,1.6,0.9,2.3,1.6c0.6,0.7,0.9,1.7,0.9,2.9C18.9,46.1,18.6,47,18.1,47.8z M36,32.4h-6.9v17.9H27
			V32.4h-6.9v-1.8H36V32.4z M36.1,19.2c-0.9-1.5-1.3-3.2-1.3-5.1c0-1.9,0.4-3.6,1.3-5.1c0.9-1.5,2.1-2.7,3.7-3.6
			C41.4,4.5,43.2,4,45.2,4c1.5,0,2.9,0.2,4.1,0.7c1.3,0.5,2.3,1.2,3.2,2.1l-1.3,1.3c-1.6-1.5-3.5-2.3-5.9-2.3c-1.6,0-3,0.4-4.3,1.1
			c-1.3,0.7-2.3,1.7-3,2.9c-0.7,1.3-1.1,2.6-1.1,4.2c0,1.5,0.4,2.9,1.1,4.2c0.7,1.2,1.7,2.2,3,2.9c1.3,0.7,2.7,1.1,4.3,1.1
			c2,0,3.7-0.5,5.2-1.5V14h2v7.5c-0.9,0.8-2,1.4-3.3,1.9c-1.3,0.4-2.6,0.6-4,0.6c-2,0-3.7-0.4-5.3-1.3C38.2,21.9,37,20.7,36.1,19.2z
			 M52.8,50.3l-4.5-6.5l-1.1-1.6h0.6c1.4,0,2.6-0.6,3.4-1.3c1-0.9,1.6-2.1,1.6-3.6c0-1.6-0.5-2.8-1.6-3.7c-1-0.8-2.5-1.3-4.5-1.3
			h-5.2v17.9h-2.1V30.6h7.4c2.5,0,4.5,0.6,5.9,1.8c1.4,1.2,2.1,2.9,2.1,5c0,1.5-0.4,2.8-1.2,3.9c-0.8,1-1.9,1.8-3.3,2.3l4.8,6.8
			H52.8z M74.4,50.3l-7.9-17.5l-7.9,17.5h-2.2l9-19.7h2.1l9,19.7L74.4,50.3z M91.8,32.4h-6.9v17.9h-2.1V32.4h-6.9v-1.8h15.9V32.4z
			 M109.1,50.3h-14v-1.8h14V50.3z M115.2,44.6c0.7,1.2,1.7,2.2,3,2.9c1.3,0.7,2.7,1.1,4.3,1.1c2,0,3.7-0.5,5.2-1.5v-6.7h2V48
			c-0.9,0.8-2,1.4-3.3,1.9c-1.3,0.4-2.6,0.6-4,0.6c-2,0-3.7-0.4-5.3-1.3c-1.6-0.9-2.8-2.1-3.7-3.6c-0.9-1.5-1.4-3.2-1.4-5.1
			s0.5-3.6,1.4-5.1c0.9-1.5,2.1-2.7,3.7-3.6s3.4-1.3,5.4-1.3c1.5,0,2.9,0.2,4.1,0.7s2.3,1.2,3.2,2.1l-1.3,1.3
			c-1.6-1.5-3.5-2.3-5.9-2.3c-1.6,0-3,0.4-4.3,1.1c-1.3,0.7-2.3,1.7-3,2.9c-0.7,1.3-1.1,2.6-1.1,4.2C114.1,42,114.5,43.4,115.2,44.6
			z M137.7,50.3h-2.1V30.6h2.1V50.3z M158.1,50.3h-14v-1.8h14V50.3z M175,47.8c-0.5,0.8-1.4,1.5-2.5,1.9c-1.1,0.5-2.5,0.7-4.1,0.7
			c-1.5,0-2.9-0.2-4.2-0.7c-1.3-0.5-2.4-1.1-3.1-1.9l0.8-1.6c0.7,0.7,1.7,1.3,2.8,1.7c1.2,0.4,2.4,0.7,3.7,0.7c1.8,0,3.1-0.3,4-1
			c0.9-0.6,1.3-1.5,1.3-2.5c0-0.8-0.2-1.4-0.7-1.9c-0.5-0.5-1.1-0.8-1.8-1.1c-0.7-0.3-1.7-0.5-2.9-0.8c-1.5-0.4-2.7-0.7-3.5-1.1
			c-0.9-0.4-1.6-0.9-2.3-1.6s-0.9-1.7-0.9-2.9c0-1,0.3-1.9,0.8-2.7c0.5-0.8,1.3-1.5,2.4-2c1.1-0.5,2.4-0.7,4.1-0.7
			c1.1,0,2.2,0.2,3.3,0.5c1.1,0.3,2,0.7,2.8,1.3l-0.7,1.7c-0.8-0.5-1.7-1-2.6-1.2c-0.9-0.3-1.9-0.4-2.8-0.4c-1.7,0-3,0.3-3.9,1
			c-0.9,0.7-1.3,1.5-1.3,2.6c0,0.8,0.2,1.4,0.7,1.9s1.1,0.8,1.8,1.1c0.7,0.3,1.7,0.5,2.9,0.8c1.4,0.4,2.6,0.7,3.5,1.1
			c0.9,0.4,1.6,0.9,2.3,1.6c0.6,0.7,0.9,1.7,0.9,2.9C175.8,46.1,175.5,47,175,47.8z"/>
	</g>
	<g>
		<path class="st2" d="M19.6,68.8h2v7.5c-0.9,0.8-2,1.4-3.3,1.9s-2.6,0.6-4,0.6c-2,0-3.7-0.4-5.3-1.3c-1.6-0.9-2.8-2.1-3.7-3.6
			s-1.3-3.2-1.3-5.1c0-1.9,0.5-3.6,1.3-5.1C6.2,62.1,7.4,60.9,9,60c1.6-0.9,3.4-1.3,5.4-1.3c1.5,0,2.9,0.2,4.1,0.7
			c1.3,0.5,2.3,1.2,3.2,2.1l-1.3,1.3c-1.6-1.5-3.5-2.3-5.9-2.3c-1.6,0-3,0.4-4.3,1.1c-1.3,0.7-2.3,1.7-3,2.9C6.4,65.8,6,67.2,6,68.8
			c0,1.5,0.4,2.9,1.1,4.2c0.7,1.2,1.7,2.2,3,2.9c1.3,0.7,2.7,1.1,4.3,1.1c2,0,3.7-0.5,5.2-1.5L19.6,68.8L19.6,68.8z"/>
		<path class="st2" d="M29.4,76.6c-1.4-1.5-2.1-3.6-2.1-6.4V58.9h2.1v11.2c0,2.3,0.5,4,1.5,5.1c1,1.1,2.5,1.7,4.5,1.7
			c2,0,3.5-0.6,4.5-1.7s1.5-2.8,1.5-5.1V58.9h2v11.3c0,2.8-0.7,4.9-2.1,6.4c-1.4,1.5-3.4,2.2-6,2.2C32.8,78.8,30.9,78,29.4,76.6z"/>
		<path class="st2" d="M49.8,58.9h2.1v19.7h-2.1V58.9z"/>
		<path class="st2" d="M58.3,58.9h2.1v17.9h11v1.8H58.3V58.9z"/>
		<g>
			<path class="st2" d="M92.1,63.6c-0.9-1.5-2.1-2.7-3.7-3.5c-1.6-0.8-3.4-1.3-5.5-1.3h-8v1.8h7.9c1.7,0,3.2,0.3,4.5,1
				c1.3,0.7,2.3,1.6,3,2.8c0.7,1.2,1.1,2.6,1.1,4.2s-0.4,3-1.1,4.2c-0.7,1.2-1.7,2.2-3,2.8s-2.8,1-4.5,1h-7.9v1.8h8
				c2.1,0,3.9-0.4,5.5-1.3c1.6-0.8,2.8-2,3.7-3.5s1.3-3.2,1.3-5.1S93,65.1,92.1,63.6z"/>
		</g>
	</g>
</g>
</svg>
