<?xml version="1.0" encoding="utf-8"?>
<!-- Generator: Adobe Illustrator 27.9.0, SVG Export Plug-In . SVG Version: 6.00 Build 0)  -->
<svg version="1.1" id="Layer_1" xmlns="http://www.w3.org/2000/svg" xmlns:xlink="http://www.w3.org/1999/xlink" x="0px" y="0px"
	 viewBox="0 0 640 320" style="enable-background:new 0 0 640 320;" xml:space="preserve">
<style type="text/css">
	.st0{fill:#43211B;}
	.st1{fill:#FF5E27;}
	.st2{fill:#FFFFFF;}
</style>
<g>
	<path class="st0" d="M164,41.5l2.7,4.3c5,18.6,8.8,32.1,11.6,40.8l-0.8,1.3v1.4c0,0.5,0.3,0.7,0.8,0.7l-0.8,1.4v2.7
		c0,1.8,1.9,4.8,5.7,8.9c2.8,12.9,5,19.4,6.6,19.4c2.6,1.8,5,1.9,6.5,3c1.9,1.4,2.6,3.7,2.6,3.9c0,0.9-0.5,1.4-1.6,1.4
		c-6.1-0.5-9.1-1.1-9.1-2c-2.1,0.9-4.3,1.3-6.6,1.3h-11.7c-1.2,0-2.3,0.2-3.3,0.7c-1-0.5-2.1-0.7-3.4-0.7h-5l-3.9-2.6
		c1.1,0,7.5-0.8,11.3-5c0-1.9-0.5-4.2-1.6-6.9c1.1,0,1.6-0.5,1.6-1.4c-1.7,0-3-3.2-4.2-9.6h-17.4c-3.3,10.8-5,17.1-5,18.7
		c0.6,0,1-1.8,3.6,0.7c0.6,0.5,2.3,4.2,3,4.8v1.3h-8.3c-2.2,0-4.5,0.2-6.6,0.7c-2.1-0.5-4.3-0.7-6.6-0.7H116l-3.9-2.6
		c7.4-4.2,16-9.4,18-18.1l16.6-54.6V54c-4.4-3-6.6-5.1-6.6-6.2C143.7,46.4,162.7,41.5,164,41.5z M153.3,74c-3.4,10.7-5,17.1-5,19.4
		c2.2,0,3.4,0.9,3.4,2.7l6.6-3.4L154.1,74H153.3z"/>
	<path class="st0" d="M203.9,45.4l41.4-3.9l2.6,3.9c0,0.6-4.1,3.6-12.2,9v8.3c-1.2,0-1.9,0.2-1.9,0.7c1.2,16.3,1.9,26.4,1.9,30.3
		V118c0.2,0.9,0.9,1.4,1.9,1.4h10.3c1.6-0.5,6.8-15.5,17.1-37.2l2.6,3.9v29.8c-0.8,4.6-2,6.9-3.7,6.9l4.7,6.2
		c-1.2,0.5-2.2,0.7-2.8,0.7c-11.4,0-19.6,0.2-24.4,0.7c-9.3-0.5-19.9-0.7-31.9-0.7h-8.4l-3.9-2.6l16.1-7.1v-4.1c0-3.2,0.3-6,0.9-8.3
		c-0.6-2.4-0.9-5.2-0.9-8.3v-0.7c0-0.5-0.3-0.7-1-0.7c0.6-0.6,1.3-3.6,1.9-8.9c-0.6-10.5-0.9-20.4-0.9-29.7v-2.1
		c0-0.5-0.3-0.7-1-0.7l1-1.3c-0.1-0.8-2.9-2.9-8.5-6.3l-2.8-2.7L203.9,45.4z"/>
	<path class="st0" d="M270.2,45.7l37.7-5.2l3.9,5.2l-10.8,9v30.6c-1.1,3.3-1.7,5.1-1.7,5.5v2.8c0,2,0.6,3.9,1.7,5.6
		c0,1-0.3,3.5-0.9,7.6c0.6,7,0.9,12.1,0.9,15.3c5,2.3,7.5,4.8,7.5,7.6l-1.7,0.7h-36.7l-3.9-2.6l14.7-7.1V97.1c0-0.5-0.3-0.7-0.8-0.7
		l0.8-1.3V58.9c0-3.7-3.3-7.6-10-11.8L270.2,45.7z"/>
	<path class="st0" d="M360.4,130.2h-24.8l-3.9-2.6l14.8-6.4V105c-4.5-9.9-9.2-21-14-33.2l0.9-1.4v-1.4c0-0.4-0.3-0.6-0.9-0.6
		l0.9-1.4V64c0-1.8-1.7-3.3-5.2-4.3c-1.1-4.4-2.5-6.6-4.2-6.6c-6.2-4.2-9.3-6.6-9.3-7c0-0.9,0.6-1.4,1.7-1.4
		c6.1,0.5,9.2,1.2,9.2,2.1c2.1-0.9,4.3-1.4,6.7-1.4h11.8c1.3,0,2.4-0.2,3.4-0.7c1,0.5,4.5-3.2,5.8-3.2l2.6,3.9v1.4
		c-1.1,0-3.6,2.1-7.5,6.3c0,1.9,0.6,4.3,1.7,7c-1.1,0-1.7,0.5-1.7,1.4c1.6,0,3.3,2.9,4.9,8.6l2.7,7.2l2.1,7.7h0.9
		c3.3-3.3,6.5-9.1,9.5-17.5s4.6-13.4,4.6-15c-0.7,0-2.7-1.9-6-5.6v-1.4h9.9c2.3,0,4.5-0.2,6.6-0.7c2.2,0.5,10.1-3.2,12.5-3.2
		l2.6,3.9v1.4c-7.5,4.2-12.2,8.8-14.2,13.6L366,97.3l0.5,19.7c0,3.2,2.9,5.2,8,8.8c0.7,0.5,1.2,2.6,2,3.1l0.7,1.4h-14.4l-2.3-4.5
		L360.4,130.2z"/>
	<path class="st0" d="M428.8,41.5l2.7,4.3c5,18.6,8.8,32.1,11.6,40.8l-0.8,1.3v1.4c0,0.5,0.3,0.7,0.8,0.7l-0.8,1.4v2.7
		c0,1.8,1.9,4.8,5.7,8.9c2.8,12.9,5,19.4,6.6,19.4c3,2.1,4.8,1.2,6.3,2.4s2.8,4.3,2.8,4.5c0,0.9-0.5,1.4-1.6,1.4
		c-6.1-0.5-9.1-1.1-9.1-2c-2.1,0.9-4.3,1.3-6.6,1.3h-11.7c-1.2,0-2.3,0.2-3.3,0.7c-1-0.5-2.1-0.7-3.4-0.7h-5l-3.9-2.6
		c1.1,0,7.5-0.8,11.3-5c0-1.9-0.5-4.2-1.6-6.9c1.1,0,1.6-0.5,1.6-1.4c-1.7,0-3-3.2-4.2-9.6H409c-3.3,10.8-5,17.1-5,18.7
		c0.6,0,1-1.8,3.6,0.7c0.6,0.5,2.3,4.2,3,4.8v1.3h-8.3c-2.2,0-4.5,0.2-6.6,0.7c-2.1-0.5-4.3-0.7-6.6-0.7h-8.2l-3.9-2.6
		c7.4-4.2,16-9.4,18-18.1l16.6-54.6V54c-4.4-3-6.6-5.1-6.6-6.2C408.6,46.4,427.5,41.5,428.8,41.5z M418.2,74
		c-3.4,10.7-5,17.1-5,19.4c2.2,0,3.4,0.9,3.4,2.7l6.6-3.4L419,74H418.2z"/>
	<path class="st0" d="M461.6,29.1c-4.5-14.7-7.6-22-9.3-22h-1.7c0,1.2-2.4,9.9-2.4,9.9l4.1,4.2l-5.1-0.4c0,0-2,5.5-3.2,9
		c-5.1,2.8-7.6,4.7-7.6,5.9v1.6c1,0,3.8,1.2,8.4,3.5c3.2,10.3,2.3,16.2,4.1,19.3c0.8,1.3,4.7,2.8,5.2,2.8h1.7
		c0-2.2,2.2-9.8,6.7-22.7c5.1-2.8,7.6-4.7,7.6-5.9v-1.6c-0.5,0-1.2-3.3-2.6-3.9C466,28.1,463.9,30.3,461.6,29.1z"/>
	<path class="st0" d="M481.8,47.7c5.7-1.9,12.9-2.8,21.7-2.7c0.8,0.2,1.6,0.3,2.4,0.4c3.2,1.1,8,2.7,14.4,4.8
		c1.9-1.2,4.7-6.6,6.3-7.1c1.3-0.4,1.5,3.9,2.6,3.9v30.4c-0.8-1.1-4.1-2.1-4.9-3.1c-7.8-9.4-12.3-15.1-18.4-17.2v0.2h-0.3
		c-10-0.8-14.9,2-14.9,8.3c-1.5,9.2,1.5,15,8.9,17.3c10.4,2.6,18,6.1,22.8,10.5l-2.8,5.8l5-3.6c2.7,3.3,4,7,4,11.1
		c0.4,15.2-8.5,22.7-26.6,22.6c-9.9,1.3-18.3-0.1-25.1-4.2c-3.5,2.1-6.5,3.2-9,3.2l-3.9-2.6l3.9-27.8c10.5,13.2,19.4,20.2,26.8,20.9
		c0.6,0.1,1.1,0.1,1.7,0.1c8.3-0.2,11.8-3.8,10.8-10.8c1-6.1-3.1-10.8-12.3-14.3c-18-4.5-27.3-13.6-28-27.3c0.1-3.4,0.8-6.4,2.2-9
		c2.9-1.3,4.9-2.9,6.1-5c1.5-1.4,3.7-2.1,6.5-2.1L481.8,47.7z"/>
	<path class="st0" d="M130.4,301.2c-2.8,0-6.5-13.1-11.2-39.4c-6.6-8.4-9.8-14.5-9.8-18.2V238l1.3-2.9c-0.9,0-1.3-0.4-1.3-1.3v-2.9
		l1.3-2.8c-4.6-17.4-11.2-45.1-19.7-83l-2.6-4.2c-2.2,0-36.2,5.6-42.4,8.4c0,2.3,3.8,6.6,11.3,12.7v1.3L29.1,274.6
		c-3.3,17.6-15.2,30.9-27.8,39.5l3.9,2.6h14c3.9,0,7.7,0.5,11.3,1.4c3.6-1,7.4-1.4,11.3-1.4h14v-2.8c-0.7-0.8-2.3-4-2.9-4.8
		c-5.1-6-7.3-6.5-8.4-6.5c0-3.2,2.8-15.8,8.5-37.9h29.5c1.8,13.1,4.2,19.7,7,19.7c0,1.8-0.9,2.8-2.8,2.8c1.8,5.4,2.8,10.1,2.8,14
		c-6.6,8.5-14.7,12.9-16.5,12.9l3.9,2.6h8.4c2.2,0,4,0.5,5.6,1.4c1.7-1,3.6-1.4,5.6-1.4h19.7c4.1,0,7.8-0.9,11.3-2.8
		c0,1.8,5.2,3.2,15.5,4.2c1.8,0,2.8-0.9,2.8-2.8C145.9,314.5,140.7,309.8,130.4,301.2z M65.7,247.8c0-3.8-1.9-5.6-5.6-5.6
		c0-4.6,2.8-17.7,8.5-39.4h1.3l7.1,37.9L65.7,247.8z"/>
	<path class="st0" d="M143.4,147.3c7.7-2.6,17.5-3.8,29.4-3.7c1.1,0.2,2.2,0.4,3.2,0.6c4.4,1.5,10.9,3.7,19.6,6.5
		c2.8-1.8,7.1-7.6,9.5-8.2c1.5-0.4,1.3,3.9,2.6,3.9v41.3c-1.3-1.7-3.6-1.6-4.9-3.1c-10.4-12.3-18.6-21.6-26.7-24.5v0.2h-0.4
		c-13.5-1-20.2,2.7-20.2,11.3c-2,12.5,2,20.3,12.1,23.5c14.2,3.5,24.5,8.3,31,14.3l-3.8,7.9l6.7-4.9c3.6,4.5,5.4,9.5,5.4,15.1
		c0.5,20.6-11.6,30.9-36.1,30.7c-13.4,1.8-24.8-0.2-34.1-5.8c-4.7,2.9-8.8,4.3-12.2,4.3l-3.9-2.6l3.9-38.7
		c14.2,17.9,26.4,27.4,36.4,28.3c0.8,0.1,1.6,0.1,2.3,0.1c11.2-0.2,16.1-5.1,14.6-14.6c1.4-8.2-4.2-14.7-16.7-19.4
		c-24.4-6.1-37.1-18.4-38-37.1c0.1-4.6,1.1-8.7,3-12.2c3.9-1.8,6.7-4,8.3-6.7c2.1-1.9,5-2.9,8.9-2.9L143.4,147.3z"/>
	<path class="st0" d="M293.7,149.9c2.8-1.7,9.6-8.2,9.6-8.2s1.2,3.9,2.6,3.9v41.3c-1-1.3-4-1.9-4.9-3.1
		c-12.9-15.6-22-24.5-31.4-25.6v0.4c-0.8,0-1.6,0-2.3,0c-11.5,4-17.3,11.2-17.3,21.5v35.9c0,17.4,7.7,26.2,23,26.2h0.4v0.2
		c7.2-2.5,29.1-31.5,29.1-31.5l2.6,3.9V256c-3.4,0-7.5-1.4-12.2-4.3c-8.6,2.9-15.1,5-19.4,6.5c-1.1,0.2-2.2,0.5-3.2,0.7
		c-32,0-50.2-19.9-54.5-59.8c0-21.5,11.4-38.2,34.3-50.2c0.6-3.2,2.6-4.8,5.8-4.8C271.8,142.5,284.5,144.4,293.7,149.9z"/>
	<path class="st0" d="M310.5,144.1H332c4.2,0.2,6.4,0.8,6.4,1.9c4.6-0.6,8-1,10.1-1c5.4,0,11.8,0.6,19,1.9c0.6-1.9,4-2.9,10.2-2.9
		l23.7-1.3c0,1.3,2,3.2,2.8,3.2l-1.2,1.9v34.9l1.2,6.6l-2.5,1c-0.5-0.8-3-1.9-3.5-2.7c-12.2-19.5-17.3-29.1-19.3-29.5h-22.7v35
		l2.5-1h5l2.5,1c0.8-1.8,5.3-8,13.8-10.6l2.6,3.9v1c0,4.7-0.4,15.8-1.2,33.1c-1.7,0-2.6,0.1-3.6-0.2l-13-13h-8.8v37.7
		c0.6,0,3.1,0.3,7.6,1c8.6-0.6,13.7-1.2,15.1-1.8c0,0.6,0.4,0.8,1.3,0.8c4-8.2,8.2-12.2,12.7-12.2v-1c0-2.1-0.4-3.6-1.3-4.7
		c3.4-10.9,4.5-21.4,8.8-23.7c0.5,6.3,3,12.3,3.8,12.3l-1.2,1.9v38.8l1.2,1.9l-2.5,0.8h-25.3c-0.8,0-1.2,0.3-1.2,1l-2.5-1h-16.4
		l-6.4-0.8v0.8l-2.5-0.8c-3.6,0-15.8,0.6-36.7,1.8l-5-3.1c0-0.6,8.7-3.1,18.9-10.1v-26.4c0-12.2,1.2-23,3.7-32.2
		c-2.5-6.7-3.7-12.4-3.7-16.9v-15.1l-13.9-10.4V144.1z"/>
	<path class="st0" d="M406.3,144.1h22.9c9.6,0,17.8,7.4,24.7,22.1l22.4,28.7v-39.7c-1.1,0-5.2-2.2-12.4-6.6v-4.4l49.1-3.9l2.6,8.4
		c-9.4,0-14.2,5.2-14.2,15.5v17.6c0,4.4,0.6,6.6,1.8,6.6l-1.8,11v48.2l1.8,15.5l-3.6,2.2c-0.8-1.1-4.2-2.1-5-3.2
		c-13.4-18.8-26-39.1-42.9-60.6c0-2.2-1.8-4.4-5.3-6.6v55.3c4.1,1.5,6.8,0.6,8.8,2.1c2,1.5,3.4,5.2,3.4,6.7h-50.8
		c0-1.3-5.6-1.3-3.9-2.6c2-1.6,11.7-4.5,16.3-6.1v-95l-14.2-6.6V144.1z"/>
	<path class="st0" d="M520.5,144.5c5.3,0,9.8,0.5,13.6,1.4c25.4-1,45.5-1.4,60.5-1.4h33.4l9.3,3.8c0.3-1.8-0.5,1.8,1.2,1.8l1.6,2.8
		v60.7h-3.1c-0.5-1.2-3.4-1.5-3.9-2.6c-4-9.3-3.6-16.4-3.6-19.9v-5.6c-5,0-10.1-6.6-15.1-19.8h-16.6v71.9c0,5.2-0.5,11.8-1.6,19.8
		c1,1.6,1.6,3.5,1.6,5.6c-1,12.7-1.6,21.6-1.6,26.8c0,8.2,4.5,12.3,18.6,20.1l2.6,6.7h-75.7l-3.9-2.6c1.2-0.9,6.3-0.5,7.4-1.3
		c9.7-7.1,14.6-12.9,14.6-17.2c0-2.2,0.5-4,1.6-5.6c-1-10.3-1.6-19.2-1.6-26.8v-1.4c0-15.7,1.5-34.5,4.6-56.4
		c-3-16.9-4.6-30-4.6-39.5h-15.1c-3.6,3.6-11.6,19.6-24.1,48L515,211l3.9-56.7L520.5,144.5z"/>
	<path class="st0" d="M409.2,275.1l-45.1,1.8l-15.4-1.8h-34.6l-4.5,1.8l-8.2-1.8h-40.7h-16l-15.4,1.6l-5.4-1.6H185v0l-4.1,6.2
		l-1.5,6.8l-3.3,0.4l-5.3,8.1l5.2,7.9l4.4,4.1l-0.5,6.4l5,3.2v0h22.5l5.8-1.7l10.2,1.7h23.1l23-1.8l6,1.8h33l2.6-1.7l12.6,1.7h23.9
		h34.6l25.2-2l9,2h10.1h26l20.6-1.1l7.3,1.1H502l5.2-7.9l-0.1-2.2l3.9-3.6l5.1-7.8l-5.5-8.5l-2.2-1.1l-2.2-5.6l-4.2-6.3h-17.9
		l-28.8,0.8l-17.5-0.8H409.2z"/>
	<g>
		<g>
			<g>
				<g>
					<g>
						<path class="st1" d="M143.6,41.8h19.1c5,18.6,8.8,32.1,11.6,40.8l-0.8,1.3v1.4c0,0.5,0.3,0.7,0.8,0.7l-0.8,1.4v2.7
							c0,1.8,1.9,4.8,5.7,8.9c2.8,12.9,5,19.4,6.6,19.4c6.1,4.2,9.1,6.5,9.1,6.9c0,0.9-0.5,1.4-1.6,1.4c-6.1-0.5-9.1-1.1-9.1-2
							c-2.1,0.9-4.3,1.3-6.6,1.3H166c-1.2,0-2.3,0.2-3.3,0.7c-1-0.5-2.1-0.7-3.4-0.7h-5v-1.3c1.1,0,3.6-2.1,7.4-6.3
							c0-1.9-0.5-4.2-1.6-6.9c1.1,0,1.6-0.5,1.6-1.4c-1.7,0-3-3.2-4.2-9.6h-17.4c-3.3,10.8-5,17.1-5,18.7c0.7,0,2.9,1.9,6.6,5.6v1.3
							h-8.3c-2.2,0-4.5,0.2-6.6,0.7c-2.1-0.5-4.3-0.7-6.6-0.7h-8.2v-1.3c7.4-4.2,12.1-10.7,14.1-19.4l16.6-54.6V50
							c-4.4-3-6.6-5.1-6.6-6.2C139.8,42.5,142.3,41.8,143.6,41.8z M149.4,70.1c-3.4,10.7-5,17.1-5,19.4c2.2,0,3.4,0.9,3.4,2.7
							l6.6-3.4l-4.2-18.7H149.4z"/>
						<path class="st0" d="M193.4,128.1c-5.6-0.4-8.3-1-9.5-1.8c-2,0.7-4,1.1-6.2,1.1H166c-1,0-1.9,0.2-2.7,0.6l-1.1,0
							c-0.8-0.4-1.8-0.6-2.8-0.6h-5l-1.3-1.3v-1.3l1.3-1.3c0.2,0,1.5-0.5,6.1-5.5c-0.1-1.7-0.6-3.7-1.5-5.9l0.9-1.4
							c-1.4-1.3-2.5-4.1-3.4-8.9h-15.4c-3.2,10.6-4.2,14.9-4.5,16.5c1.1,0.6,2.8,2.1,6.2,5.5l0.4,0.9v1.3l-1.3,1.3h-8.3
							c-2.1,0-4.3,0.2-6.4,0.7l-0.6,0c-2-0.4-4.2-0.7-6.3-0.7h-8.2l-1.3-1.3v-1.3l0.7-1.1c7.1-4,11.6-10.3,13.4-18.5l16.5-54.4
							c-5.8-4-6.6-5.7-6.6-6.8l0.9-1.2c3.9-1.4,6.4-2.1,7.9-2.1h19.1l1.3,1c4.9,18.5,8.8,32.2,11.6,40.7l-0.1,1.1l-0.6,1v1.1
							c0-0.2-0.3-0.6-0.5-0.6l1.2,1.9l-0.6,1.1v2.4c0,0.8,0.7,3,5.4,8l0.3,0.6c3.4,15.9,5.2,18.1,5.6,18.4c0,0-0.1-0.1-0.3-0.1
							l0.7,0.2c9.7,6.7,9.7,7.1,9.7,8C196.3,127,195.2,128.1,193.4,128.1z M185.3,124.1c0.2,0.1,1.3,0.8,7.9,1.3
							c-0.9-0.7-2.9-2.3-7.9-5.7c-1.7-0.3-3.7-3-7.4-20c-4-4.3-5.9-7.4-5.9-9.6v-2.7l0.2-0.6l0.2-0.3c-0.2-0.3-0.3-0.7-0.3-1.2v-1.4
							l0.2-0.7l0.5-0.8c-2.7-8.4-6.4-21.6-11.2-39.3h-18.1c-0.7,0-2.2,0.3-5.6,1.5c0.7,0.7,2.2,2.1,5.5,4.4l0.6,1.1l-0.1,1.1
							l-16.6,54.6c-1.8,8.2-6.2,14.6-12.8,19h5.8c2.3,0,4.5,0.2,6.6,0.7c2.2-0.4,4.4-0.7,6.6-0.7h6.5c-3.8-3.8-4.8-4.3-5-4.3
							c0,0,0.1,0,0.2,0l-1.3-1.3c0-1.1,0.5-4.3,5-19l1.2-0.9h17.4l1.3,1.1c1.4,8.1,2.9,8.6,2.9,8.6l1.3,1.3c0,1-0.4,1.8-1.2,2.3
							c0.8,2.2,1.2,4.3,1.2,6l-0.3,0.9c-2.6,2.8-4.3,4.5-5.6,5.4h2.1c1.2,0,2.3,0.2,3.3,0.6c1-0.4,2.1-0.6,3.3-0.6h11.7
							c2.2,0,4.2-0.4,6.1-1.2l1.8,1.2C185.6,124.4,185.4,124.2,185.3,124.1z M148.4,93.4l-1.9-1.2c0-0.6,0-1.4-2.1-1.4l-1.3-1.3
							c0-2.4,1.7-8.9,5.1-19.8l1.2-0.9h0.8l1.3,1l4.2,18.7l-0.7,1.4L148.4,93.4z M145.8,88.3c1.6,0.3,2.4,1.1,2.8,2l4.3-2.2
							l-3.2-14.4C147.1,82.1,146.1,86.3,145.8,88.3z"/>
					</g>
					<g>
						<path class="st1" d="M200,41.5h44c0,0.6-4.1,3.6-12.2,9v8.3c-1.2,0-1.9,0.2-1.9,0.7c1.2,16.3,1.9,26.4,1.9,30.3V114
							c0.2,0.9,0.9,1.4,1.9,1.4H244c1.6-0.5,7.5-11.6,17.9-33.2h1.9V112c-0.8,4.6-2,6.9-3.7,6.9l4.7,6.2c-1.2,0.5-2.2,0.7-2.8,0.7
							c-11.4,0-19.6,0.2-24.4,0.7c-9.3-0.5-19.9-0.7-31.9-0.7h-8.4v-0.7l12.2-9V112c0-3.2,0.3-6,0.9-8.3c-0.6-2.4-0.9-5.2-0.9-8.3
							v-0.7c0-0.5-0.3-0.7-1-0.7c0.6-0.6,1.3-3.6,1.9-8.9c-0.6-10.5-0.9-20.4-0.9-29.7v-2.1c0-0.5-0.3-0.7-1-0.7l1-1.3
							c-0.1-0.8-2.9-2.9-8.5-6.3l-2.8-2.7L200,41.5z"/>
						<path class="st0" d="M237.4,127.8c-9.2-0.5-19.9-0.7-31.8-0.7h-8.4l-1.3-1.3v-0.7l0.5-1l11.7-8.6V112c0-3.1,0.3-5.9,0.8-8.3
							c-0.6-2.4-0.8-5.2-0.8-8.3v-0.7c0,0.3,0.3,0.6,0.5,0.6l-1-2.2c0.1-0.1,0.7-1.3,1.5-8c-0.6-10.4-0.9-20.4-0.9-29.7v-2.1
							c0,0.3,0.3,0.6,0.5,0.6l-1.2-2.1l0.4-0.6c-0.7-0.6-2.5-2.1-7.6-5.1l-0.2-0.2l-2.8-2.7l0.5-2.2l1.9-0.7l0.4-0.1h44l1.3,1.3
							c0,0.9,0,1.6-12.2,9.7v7.6l-1.3,1.3c-0.2,0-0.4,0-0.5,0c1.2,15.8,1.8,25.8,1.8,29.7v24c0.1,0.2,0.2,0.3,0.6,0.3h9.9
							c1-0.9,4.5-6.2,17.1-32.5l1.2-0.7h1.9l1.3,1.3l0,30c-0.4,2.6-1.2,5.8-2.9,7.2l3.7,4.8l-0.6,2c-1.4,0.5-2.5,0.8-3.3,0.8
							c-11.3,0-19.5,0.2-24.3,0.7L237.4,127.8z M200.2,124.5h5.4c11.9,0,22.7,0.2,31.9,0.7c4.9-0.5,13.1-0.7,24.4-0.7
							c0.1,0,0.3,0,0.7-0.1l-3.6-4.7l1-2.1c0.1,0,1.5-0.2,2.4-5.7V84.1c-15.1,31.6-16.9,32.2-18,32.6l-0.4,0.1h-10.3
							c-1.7,0-2.8-0.9-3.2-2.4l0-0.3V89.8c0-3.9-0.6-14-1.9-30.2c0-0.8,0.4-1.7,1.9-2v-7.1l0.6-1.1c5-3.3,7.9-5.4,9.6-6.6h-40.1
							l1.1,1.1c8.2,4.9,8.9,6.2,9,7.2l-0.3,1c0.2,0.3,0.3,0.7,0.3,1.1v2.1c0,9.3,0.3,19.2,0.9,29.6l0,0.2c-0.5,4.5-1,6.9-1.4,8.1
							c0.3,0.4,0.5,0.9,0.5,1.3v0.7c0,3,0.3,5.7,0.8,8l0,0.6c-0.6,2.2-0.8,4.9-0.8,8v4.1l-0.5,1L200.2,124.5z M243.5,114.3
							L243.5,114.3L243.5,114.3z M242.8,40.9L242.8,40.9L242.8,40.9z"/>
					</g>
					<g>
						<path class="st1" d="M266.3,41.8h41.6l-10.8,9v30.6c-1.1,3.3-1.7,5.1-1.7,5.5v2.8c0,2,0.6,3.9,1.7,5.6c0,1-0.3,3.5-0.9,7.6
							c0.6,7,0.9,12.1,0.9,15.3c5,2.3,7.5,4.8,7.5,7.6l-1.7,0.7h-36.7v-0.7l10.8-9V93.2c0-0.5-0.3-0.7-0.8-0.7l0.8-1.3V55
							c0-3.7-3.3-7.6-10-11.8L266.3,41.8z"/>
						<path class="st0" d="M303,127.8h-36.7l-1.3-1.3v-0.7l0.5-1l10.3-8.6v-23c0,0.2,0.3,0.6,0.5,0.6l-1.1-2l0.6-1V55
							c0-3.2-3.2-6.8-9.4-10.7l-0.4-0.4l-0.8-1.3l1.1-2h41.6l0.8,2.3l-10.3,8.6v30l-0.1,0.4c-1.4,4.2-1.6,5-1.6,5.1l0,2.7
							c0,1.8,0.5,3.3,1.5,4.9l0.2,0.7c0,1.1-0.3,3.5-0.9,7.6c0.5,6.4,0.8,11.2,0.9,14.4c5.1,2.5,7.5,5.2,7.5,8.4l-0.8,1.2l-1.7,0.7
							L303,127.8z M269.1,125.2h33.7l0.5-0.2c-0.5-1.9-2.7-3.8-6.6-5.6l-0.8-1.2c0-3.2-0.3-8.3-0.9-15.2l0-0.3
							c0.5-3.6,0.8-5.9,0.9-7.1c-1.1-1.8-1.7-3.8-1.7-5.9v-2.8c0-0.3,0-0.7,1.7-5.7V50.8l0.5-1l8-6.7h-34.9c6,4.1,9,8,9,11.9v36.2
							l-0.2,0.7l-0.1,0.2c0.2,0.3,0.3,0.7,0.3,1.1v23.6l-0.5,1L269.1,125.2z"/>
					</g>
					<g>
						<path class="st1" d="M356.5,126.3h-24.8l10.9-9V101c-4.5-9.9-9.2-21-14-33.2l0.9-1.4V65c0-0.4-0.3-0.6-0.9-0.6l0.9-1.4v-2.8
							c0-1.8-1.7-3.3-5.2-4.3c-1.1-4.4-2.5-6.6-4.2-6.6c-6.2-4.2-9.3-6.6-9.3-7c0-0.9,0.6-1.4,1.7-1.4c6.1,0.5,9.2,1.2,9.2,2.1
							c2.1-0.9,4.3-1.4,6.7-1.4h11.8c1.3,0,2.4-0.2,3.4-0.7c1,0.5,2.1,0.7,3.4,0.7h5v1.4c-1.1,0-3.6,2.1-7.5,6.3
							c0,1.9,0.6,4.3,1.7,7c-1.1,0-1.7,0.5-1.7,1.4c1.6,0,3.3,2.9,4.9,8.6l2.7,7.2l2.1,7.7h0.9c3.3-3.3,6.5-9.1,9.5-17.5
							c3.1-8.4,4.6-13.4,4.6-15c-0.7,0-2.7-1.9-6-5.6v-1.4h9.9c2.3,0,4.5-0.2,6.6-0.7c2.2,0.5,4.4,0.7,6.8,0.7h8.3v1.4
							c-7.5,4.2-12.2,8.8-14.2,13.6L362,93.4l0.5,19.7c0,3.7,3.4,7.7,10.1,11.8l0.7,1.4H359l-2.3-4.5L356.5,126.3z"/>
						<path class="st0" d="M373.4,127.6H359l-1.2-0.7l-0.2-0.4l-1.1,1.1h-24.8l-0.8-2.3l10.4-8.6v-15.4c-4.5-9.8-9.2-20.9-13.9-33
							l0.1-1.2l0.7-1.1v-1c0,0.3,0.3,0.7,0.5,0.7l-1.2-2l0.7-1.1v-2.5c0-1.5-2.7-2.6-4.3-3.1l-0.9-0.9c-1.4-5.5-2.7-5.6-2.9-5.6
							l-0.7-0.2c-9.8-6.8-9.8-7.2-9.8-8.1c0-1.3,0.8-2.7,3-2.7c5.7,0.4,8.4,1,9.6,1.8c2-0.7,4.1-1.1,6.3-1.1h11.8
							c1.1,0,2-0.2,2.8-0.6l1.1,0c0.8,0.4,1.8,0.6,2.8,0.6h5l1.3,1.3v1.4l-1.3,1.3c-0.2,0-1.5,0.5-6.2,5.5c0.1,1.7,0.6,3.7,1.6,6
							l-0.9,1.4c1.5,1.3,2.8,4.1,4.1,8.8l2.6,7.1l1.7,6.3c2.8-3.3,5.7-8.7,8.4-16.1c3.1-8.6,4.1-12.2,4.4-13.7
							c-1-0.7-2.6-2.1-5.6-5.5l-0.3-0.9v-1.4l1.3-1.3h9.9c2.2,0,4.3-0.2,6.3-0.7l0.6,0c2.1,0.4,4.3,0.7,6.5,0.7h8.3l1.3,1.3v1.4
							l-0.7,1.1c-7.2,4.1-11.8,8.4-13.7,13l-18.4,36.7l0.5,19.4c0,3.2,3.2,6.9,9.5,10.8l0.5,0.5l0.7,1.4L373.4,127.6z M359.8,125
							h10.7c-6.1-4.1-9.1-8-9.1-12l-0.5-19.7l0.1-0.6l18.5-36.9c1.9-4.6,6.3-9,13-13.1h-5.9c-2.3,0-4.6-0.2-6.8-0.7
							c-2.1,0.4-4.3,0.7-6.6,0.7h-8.2c3.5,3.8,4.4,4.3,4.6,4.4c0,0-0.1,0-0.2,0l1.3,1.3c0,1.1-0.5,3.9-4.7,15.4
							c-3.2,8.7-6.4,14.6-9.9,18l-0.9,0.4h-0.9l-1.3-1l-2.1-7.7l-2.6-7.1c-2.1-7.6-3.6-7.7-3.6-7.7l-1.3-1.3c0-0.9,0.3-1.8,1.2-2.3
							c-0.8-2.3-1.2-4.3-1.2-6.1l0.4-0.9c2.7-2.9,4.5-4.5,5.8-5.5h-2.4c-1.2,0-2.3-0.2-3.3-0.6c-1,0.4-2.1,0.6-3.4,0.6h-11.8
							c-2.2,0-4.3,0.4-6.2,1.3l-1.8-1.2c0,0.3,0.2,0.5,0.2,0.5c-0.2-0.1-1.3-0.8-8.1-1.4c0.9,0.7,3,2.3,8.1,5.8
							c2.6,0.4,4,3.9,4.8,6.9c3.6,1.2,5.4,3,5.4,5.4v2.8l-0.2,0.7l-0.1,0.2c0.2,0.3,0.3,0.7,0.3,1.1v1.4l-0.2,0.7l-0.5,0.9
							c4.7,11.9,9.3,22.9,13.7,32.6l0.1,0.5v16.3l-0.5,1l-8.1,6.7h19.9l0.1-3.3l2.5-0.5L359.8,125z"/>
					</g>
					<g>
						<path class="st1" d="M408.5,41.8h19.1c5,18.6,8.8,32.1,11.6,40.8l-0.8,1.3v1.4c0,0.5,0.3,0.7,0.8,0.7l-0.8,1.4v2.7
							c0,1.8,1.9,4.8,5.7,8.9c2.8,12.9,5,19.4,6.6,19.4c6.1,4.2,9.1,6.5,9.1,6.9c0,0.9-0.5,1.4-1.6,1.4c-6.1-0.5-9.1-1.1-9.1-2
							c-2.1,0.9-4.3,1.3-6.6,1.3h-11.7c-1.2,0-2.3,0.2-3.3,0.7c-1-0.5-2.1-0.7-3.4-0.7h-5v-1.3c1.1,0,3.6-2.1,7.4-6.3
							c0-1.9-0.5-4.2-1.6-6.9c1.1,0,1.6-0.5,1.6-1.4c-1.7,0-3-3.2-4.2-9.6h-17.4c-3.3,10.8-5,17.1-5,18.7c0.7,0,2.9,1.9,6.6,5.6v1.3
							h-8.3c-2.2,0-4.5,0.2-6.6,0.7c-2.1-0.5-4.3-0.7-6.6-0.7H377v-1.3c7.4-4.2,12.1-10.7,14.1-19.4l16.6-54.6V50
							c-4.4-3-6.6-5.1-6.6-6.2C404.7,42.5,407.2,41.8,408.5,41.8z M414.3,70.1c-3.4,10.7-5,17.1-5,19.4c2.2,0,3.4,0.9,3.4,2.7
							l6.6-3.4l-4.2-18.7H414.3z"/>
						<path class="st0" d="M458.3,128.1c-5.6-0.4-8.3-1-9.5-1.8c-2,0.7-4,1.1-6.2,1.1h-11.7c-1,0-1.9,0.2-2.7,0.6l-1.1,0
							c-0.8-0.4-1.8-0.6-2.8-0.6h-4.9l-1.3-1.3v-1.3l1.3-1.3c0.2,0,1.5-0.5,6.1-5.5c-0.1-1.7-0.6-3.7-1.5-5.9l0.9-1.4
							c-1.4-1.3-2.5-4.1-3.4-8.9h-15.4c-3.2,10.6-4.2,14.9-4.5,16.5c1.1,0.6,2.8,2.1,6.2,5.5l0.4,0.9v1.3l-1.3,1.3h-8.3
							c-2.1,0-4.3,0.2-6.4,0.7l-0.6,0c-2-0.4-4.2-0.7-6.3-0.7H377l-1.3-1.3v-1.3l0.7-1.1c7.1-4,11.6-10.3,13.4-18.5l16.5-54.4
							c-5.8-4-6.6-5.7-6.6-6.8l0.9-1.2c3.9-1.4,6.4-2.1,7.9-2.1h19.1l1.3,1c4.9,18.5,8.8,32.2,11.6,40.7l-0.1,1.1l-0.6,1v1.1
							c0-0.2-0.3-0.6-0.5-0.6l1.2,1.9l-0.6,1.1v2.4c0,0.8,0.7,3,5.4,8l0.3,0.6c3.4,15.9,5.2,18.1,5.6,18.4c0,0-0.1-0.1-0.3-0.1
							l0.7,0.2c9.7,6.7,9.7,7.1,9.7,8C461.2,127,460,128.1,458.3,128.1z M458.7,126L458.7,126L458.7,126z M450.2,124.1
							c0.2,0.1,1.3,0.8,7.9,1.3c-0.9-0.7-2.9-2.3-7.9-5.7c-1.7-0.3-3.7-3-7.4-20c-4-4.3-5.8-7.4-5.8-9.6v-2.7l0.2-0.6l0.2-0.3
							c-0.2-0.3-0.3-0.7-0.3-1.2v-1.4l0.2-0.7l0.5-0.8c-2.7-8.5-6.5-21.7-11.2-39.3h-18.1c-0.7,0-2.2,0.3-5.6,1.5
							c0.7,0.7,2.2,2.1,5.5,4.4L409,50l-0.1,1.1l-16.6,54.6c-1.8,8.2-6.2,14.6-12.8,19h5.8c2.3,0,4.5,0.2,6.6,0.7
							c2.2-0.4,4.4-0.7,6.6-0.7h6.5c-3.8-3.8-4.8-4.3-5-4.3c0,0,0.1,0,0.2,0l-1.3-1.3c0-1.1,0.5-4.3,5-19l1.2-0.9h17.4l1.3,1.1
							c1.4,8.1,2.9,8.6,2.9,8.6l1.3,1.3c0,1-0.4,1.8-1.2,2.3c0.8,2.2,1.2,4.3,1.2,6l-0.3,0.9c-2.6,2.8-4.3,4.5-5.6,5.4h2.1
							c1.2,0,2.3,0.2,3.3,0.6c1-0.4,2.1-0.6,3.3-0.6h11.7c2.2,0,4.2-0.4,6.1-1.2l1.8,1.2C450.5,124.4,450.3,124.2,450.2,124.1z
							 M413.2,93.4l-1.9-1.2c0-0.6,0-1.4-2.1-1.4l-1.3-1.3c0-2.4,1.7-8.9,5.1-19.8l1.2-0.9h0.8l1.3,1l4.2,18.7l-0.7,1.4L413.2,93.4z
							 M410.7,88.3c1.6,0.3,2.4,1.1,2.8,2l4.3-2.2l-3.2-14.4C412,82.1,411,86.3,410.7,88.3z"/>
					</g>
					<g>
						<path class="st1" d="M457.7,25.2c-4.5-14.7-7.6-22-9.3-22h-1.7c0,1.2-2.4,9.9-2.4,9.9l4.1,4.2l-5.1-0.4c0,0-2,5.5-3.2,9
							c-5.1,2.8-7.6,4.7-7.6,5.9v1.6c1,0,3.8,1.2,8.4,3.5c4.5,14.7,7.6,22,9.3,22h1.7c0-2.2,2.2-9.8,6.7-22.7
							c5.1-2.8,7.6-4.7,7.6-5.9v-1.6C465.1,28.7,462.3,27.5,457.7,25.2z"/>
						<path class="st0" d="M451.8,60.3h-1.7c-1.5,0-3.4,0-10.4-22.4c-5.7-2.9-7-3.1-7.3-3.1l-1.3-1.3v-1.6c0-1.3,1-3,7.9-6.8
							c1.2-3.5,3.1-8.5,3.1-8.6l1.3-0.8l1.7,0.1l-1.7-1.7l-0.3-1.3c1.1-4.1,2.3-8.8,2.4-9.6l1.3-1.3h1.7c1.5,0,3.4,0,10.4,22.4
							c5.7,2.9,7,3.1,7.3,3.1l1.3,1.3v1.6c0,1.3-1,3-7.9,6.8c-5.3,15.5-6.4,20.5-6.4,21.8L451.8,60.3z M450.3,57.7h0.3
							c0.4-2.4,1.8-7.8,6.6-21.9l0.6-0.7c6.4-3.4,6.9-4.7,7-4.9l0-0.4c-1.2-0.4-3.4-1.3-7.6-3.4l-0.7-0.8C451.1,8,448.9,5,448.3,4.5
							h-0.4c-0.4,2.2-1.5,6.2-2.1,8.2l3.6,3.7l-1.1,2.2l-4.1-0.4c-0.6,1.7-2,5.5-2.9,8.1l-0.6,0.7c-6.4,3.4-6.9,4.7-7,4.9l0,0.4
							c1.2,0.4,3.4,1.3,7.6,3.4l0.7,0.8C447.5,54.2,449.6,57.2,450.3,57.7z"/>
					</g>
					<g>
						<path class="st1" d="M477.9,43.8c5.7-1.9,12.9-2.8,21.7-2.7c0.8,0.2,1.6,0.3,2.4,0.4c3.2,1.1,8,2.7,14.4,4.8
							c3.4-2.1,6.4-3.2,8.9-3.2v30.4c-8.8-11.2-16.6-18-23.3-20.3v0.2h-0.3c-10-0.8-14.9,2-14.9,8.3c-1.5,9.2,1.5,15,8.9,17.3
							c10.4,2.6,18,6.1,22.8,10.5l-2.8,5.8l5-3.6c2.7,3.3,4,7,4,11.1c0.4,15.2-8.5,22.7-26.6,22.6c-9.9,1.3-18.3-0.1-25.1-4.2
							c-3.5,2.1-6.5,3.2-9,3.2V94c10.5,13.2,19.4,20.2,26.8,20.9c0.6,0.1,1.1,0.1,1.7,0.1c8.3-0.2,11.8-3.8,10.8-10.8
							c1-6.1-3.1-10.8-12.3-14.3c-18-4.5-27.3-13.6-28-27.3c0.1-3.4,0.8-6.4,2.2-9c2.9-1.3,4.9-2.9,6.1-5c1.5-1.4,3.7-2.1,6.5-2.1
							L477.9,43.8z"/>
						<path class="st0" d="M491.2,127.2c-6.9,0-13.1-1.5-18.3-4.5c-3.4,2-6.4,3-9,3l-1.3-1.3V94l2.3-0.8
							c10.2,12.9,18.9,19.7,25.9,20.4c0.5,0.1,1.1,0.1,1.6,0.1c4-0.1,6.8-1,8.3-2.8c1.2-1.5,1.7-3.7,1.2-6.5l0-0.4
							c0.9-5.4-2.8-9.6-11.4-12.9c-18.5-4.6-28.2-14.2-28.9-28.5c0.1-3.7,0.9-6.9,2.4-9.7l0.6-0.6c2.6-1.2,4.5-2.7,5.5-4.4l0.2-0.3
							c1.5-1.4,3.6-2.2,6.2-2.4l0.1-1.5l0.9-1.2c5.8-1.9,13.2-2.9,22.1-2.8l0.3,0c0.8,0.2,1.6,0.3,2.3,0.4l0.2,0.1
							c3.1,1.1,7.8,2.6,13.8,4.6c3.4-2,6.5-3.1,9.1-3.1l1.3,1.3v30.4l-2.3,0.8C515.8,63.6,508.3,57,502,54.5l-0.1,0.1h-0.3
							c-5.8-0.4-9.7,0.3-11.8,2.2c-1.2,1.1-1.8,2.7-1.8,4.8l0,0.2c-1.4,8.5,1.3,13.7,8,15.9c10.5,2.6,18.4,6.3,23.3,10.8l0.3,1.5
							l-0.5,1.1l0.7-0.5l1.8,0.2c2.8,3.5,4.3,7.5,4.3,12c0.2,7.2-1.7,13-5.7,17c-4.6,4.7-12.1,7-22.2,7
							C495.7,127.1,493.4,127.2,491.2,127.2z M473.6,120.1c6.5,3.9,14.7,5.3,24.3,4.1l0.2,0c0.1,0,0.3,0,0.4,0
							c9.2,0,15.9-2.1,20-6.2c3.4-3.5,5.1-8.5,4.9-15.1c0-3.5-1-6.5-2.9-9.4l-3.9,2.9l-1.9-1.6l2.4-4.9c-4.6-4-11.9-7.2-21.5-9.6
							c-8.2-2.6-11.5-8.9-9.9-18.7c0-2.8,0.9-5,2.6-6.6c2.6-2.5,7.1-3.4,13.7-2.9l0.2,0v0.2l0.4-0.3c6.4,2.2,13.5,8.1,21.6,17.9
							V44.5c-2,0.3-4.3,1.3-6.9,2.9l-1.1,0.1c-6.3-2-11.1-3.6-14.3-4.7c-0.7-0.1-1.5-0.2-2.2-0.4c-8.1,0-14.9,0.8-20.3,2.4l-0.1,1.8
							l-1.3,1.2c-2.4,0-4.3,0.6-5.5,1.7c-1.3,2.1-3.3,3.8-6.2,5.1c-1.2,2.3-1.8,5-1.9,8c0.7,13.1,9.5,21.7,27,26l0.1,0
							c9.7,3.7,14.1,8.9,13.1,15.5c0.5,3.5-0.1,6.3-1.8,8.4c-2,2.4-5.4,3.6-10.2,3.7c-0.6,0-1.2,0-1.8-0.1
							c-7.2-0.7-15.5-6.8-25.3-18.5V123c2-0.3,4.4-1.3,7-2.9L473.6,120.1z"/>
					</g>
				</g>
				<g>
					<g>
						<g>
							<path class="st1" d="M126.5,297.3c-2.8,0-6.5-13.1-11.2-39.4c-6.6-8.4-9.8-14.5-9.8-18.2v-5.6l1.3-2.9
								c-0.9,0-1.3-0.4-1.3-1.3V227l1.3-2.8c-4.6-17.4-11.2-45.1-19.7-83H54.7c-2.2,0-6.4,1.4-12.6,4.2c0,2.3,3.8,6.6,11.3,12.7v1.3
								L25.2,270.7c-3.3,17.6-11.2,30.7-23.9,39.4v2.8h14c3.9,0,7.7,0.5,11.3,1.4c3.6-1,7.4-1.4,11.3-1.4h14V310
								c-6.3-7.5-10.1-11.3-11.3-11.3c0-3.2,2.8-15.8,8.5-37.9h29.5c1.8,13.1,4.2,19.7,7,19.7c0,1.8-0.9,2.8-2.8,2.8
								c1.8,5.4,2.8,10.1,2.8,14c-6.6,8.5-10.8,12.7-12.6,12.7v2.8h8.4c2.2,0,4,0.5,5.6,1.4c1.7-1,3.6-1.4,5.6-1.4h19.7
								c4.1,0,7.8-0.9,11.3-2.8c0,1.8,5.2,3.2,15.5,4.2c1.8,0,2.8-0.9,2.8-2.8C141.9,310.6,136.8,305.9,126.5,297.3z M61.8,243.9
								c0-3.8-1.9-5.6-5.6-5.6c0-4.6,2.8-17.7,8.5-39.4H66l7.1,37.9L61.8,243.9z"/>
							<path class="st0" d="M139.2,315.5c-10.3-1-14.5-2.2-16.1-3.8c-3.3,1.5-6.9,2.3-10.7,2.3H92.7c-1.9,0-3.5,0.4-5,1.3l-1.3,0
								c-1.4-0.8-3.1-1.3-5-1.3h-8.4l-1.3-1.3V310l1.3-1.3c0.4,0,2.6-0.7,11.3-11.9c-0.1-3.7-1-8.1-2.7-13.2l1.2-1.7
								c0.7,0,1.1-0.1,1.3-0.5c-2.2-1.1-4.5-5.3-6.6-19.3H50.2c-6.1,23.7-7.9,32.6-8.2,35.7c1.5,0.9,4.4,3.6,10.9,11.3l0.3,0.8v2.8
								l-1.3,1.3h-14c-3.8,0-7.5,0.5-10.9,1.4h-0.7c-3.5-0.9-7.2-1.4-10.9-1.4h-14L0,312.8V310l0.6-1.1
								c12.3-8.4,20.1-21.4,23.3-38.5l28.2-111.2v-0.5c-10-8.2-11.3-11.5-11.3-13.3l0.8-1.2c6.4-2.9,10.7-4.3,13.1-4.3h32.4l1.3,1
								c8.4,37.7,15.1,65.7,19.7,83l-0.1,0.9l-1.2,2.5v2.6c0,0,0,0,0,0c0,0,0,0,0,0l1.2,1.8l-1.2,2.6v5.4c0,2.4,1.7,7.3,9.6,17.4
								l0.3,0.6c6,34.1,9.2,37.9,10,38.3l0.7,0.3c16,13.2,16,14.2,16,15.2C143.2,314,141.7,315.5,139.2,315.5z M123.1,308.9l1.9,1.2
								c0.1,0.1,1.4,1.7,14.3,2.9c0.9,0,1.3-0.3,1.3-1.2c-0.5-0.7-2.9-3.4-14.7-13.1c-2.5-0.5-5.7-5.6-11.9-40.1
								c-6.7-8.6-9.9-14.7-9.9-18.8v-5.6l0.1-0.5l0.7-1.6c-0.5-0.5-0.9-1.2-0.9-2V227l0.1-0.6l1.1-2.3
								c-4.6-17.2-11.1-44.7-19.3-81.6H54.7c-1.3,0-4.4,0.6-11.1,3.7c0.6,1.4,2.8,4.5,10.6,10.9l0.5,1l0,1.6L26.5,271
								c-3.3,17.5-11.3,30.9-23.8,39.7v0.8h12.7c3.9,0,7.7,0.5,11.3,1.4c3.6-0.9,7.4-1.4,11.3-1.4h12.7v-1
								c-7.8-9.2-9.7-10.3-10.1-10.5c0,0,0,0,0.1,0l-1.3-1.3c0-3.3,2.8-15.9,8.6-38.2l1.3-1h29.5l1.3,1.1c2.5,18,5.4,18.6,5.7,18.6
								l1.3,1.3c0,1.9-0.9,3.2-2.4,3.8c1.6,5,2.4,9.3,2.4,13l-0.3,0.8c-7.1,9.2-10.4,12.1-12.3,12.9v0.5h7.1c2.1,0,4,0.4,5.7,1.3
								c1.7-0.8,3.6-1.3,5.6-1.3h19.7C116.3,311.5,119.9,310.6,123.1,308.9z M140.7,311.8L140.7,311.8L140.7,311.8z M62.5,245
								l-2-1.1c0-3-1.3-4.3-4.3-4.3l-1.3-1.3c0-4.7,2.8-17.7,8.6-39.7l1.3-1H66l1.3,1.1l7.1,37.9l-0.6,1.3L62.5,245z M57.5,237
								c2.9,0.4,4.7,2,5.3,4.6l8.8-5.5l-6.4-34.3C60.5,220.2,57.9,231.9,57.5,237z"/>
						</g>
					</g>
					<g>
						<path class="st1" d="M139.5,143.3c7.7-2.6,17.5-3.8,29.4-3.7c1.1,0.2,2.2,0.4,3.2,0.6c4.4,1.5,10.9,3.7,19.6,6.5
							c4.6-2.9,8.7-4.3,12.1-4.3v41.3c-12-15.2-22.6-24.4-31.7-27.6v0.2h-0.4c-13.5-1-20.2,2.7-20.2,11.3c-2,12.5,2,20.3,12.1,23.5
							c14.2,3.5,24.5,8.3,31,14.3l-3.8,7.9l6.7-4.9c3.6,4.5,5.4,9.5,5.4,15.1c0.5,20.6-11.6,30.9-36.1,30.7
							c-13.4,1.8-24.8-0.2-34.1-5.8c-4.7,2.9-8.8,4.3-12.2,4.3v-41.3c14.2,17.9,26.4,27.4,36.4,28.3c0.8,0.1,1.6,0.1,2.3,0.1
							c11.2-0.2,16.1-5.1,14.6-14.6c1.4-8.2-4.2-14.7-16.7-19.4c-24.4-6.1-37.1-18.4-38-37.1c0.1-4.6,1.1-8.7,3-12.2
							c3.9-1.8,6.7-4,8.3-6.7c2.1-1.9,5-2.9,8.9-2.9L139.5,143.3z"/>
						<path class="st0" d="M157.6,256.2c-9.4,0-17.8-2.1-24.9-6.2c-4.6,2.7-8.8,4.1-12.2,4.1l-1.3-1.3v-41.3l2.3-0.8
							c13.9,17.5,25.9,26.9,35.5,27.8c0.8,0.1,1.5,0.1,2.2,0.1c5.6-0.1,9.5-1.4,11.6-3.9c1.8-2.1,2.4-5.2,1.8-9.2l0-0.4
							c1.3-7.6-3.9-13.5-15.8-18c-24.9-6.2-38-19.1-39-38.3c0.1-4.9,1.1-9.2,3.2-12.9l0.6-0.6c3.6-1.6,6.2-3.7,7.7-6.2l0.2-0.3
							c2.1-1.9,5-3,8.5-3.2l0.2-2.4l0.9-1.2c7.8-2.6,17.8-3.9,29.8-3.8l0.3,0c1.1,0.2,2.2,0.4,3.2,0.6l0.2,0.1
							c4.3,1.5,10.7,3.6,19,6.3c4.6-2.8,8.7-4.2,12.3-4.2l1.3,1.3v41.3l-2.3,0.8c-11.5-14.6-21.8-23.7-30.5-27l-0.1,0.1h-0.4
							c-8-0.6-13.4,0.5-16.3,3.1c-1.7,1.6-2.6,3.9-2.5,6.8l0,0.2c-1.9,11.9,1.8,19.1,11.2,22.1c14.2,3.5,24.8,8.4,31.5,14.6l0.3,1.5
							l-1.5,3.2l2.5-1.8l1.8,0.2c3.8,4.7,5.7,10.1,5.7,15.9c0.2,9.7-2.3,17.4-7.6,22.7c-6.1,6.2-16,9.3-29.3,9.3c-0.2,0-0.3,0-0.5,0
							C163.7,255.9,160.6,256.2,157.6,256.2z M133.4,247.3c9,5.4,20.2,7.3,33.2,5.6l0.2,0c0.2,0,0.4,0,0.6,0
							c12.6,0,21.9-2.9,27.4-8.6c4.7-4.8,7-11.8,6.8-20.8c0-4.9-1.5-9.4-4.4-13.3l-5.7,4.2l-1.9-1.6l3.4-7
							c-6.3-5.5-16.3-10-29.7-13.3c-10.8-3.4-15.2-11.8-13.1-24.9c0-3.6,1.1-6.5,3.4-8.6c3.5-3.3,9.4-4.5,18.2-3.8l0.3,0v0.1
							l0.4-0.3c8.7,3.1,18.8,11.5,29.9,25.1v-36.2c-2.9,0.3-6.3,1.7-10.1,4l-1.1,0.1c-8.5-2.8-15.1-4.9-19.5-6.4
							c-1-0.2-2-0.3-3.1-0.6c-11.2-0.1-20.7,1.1-28,3.4l-0.2,2.7l-1.3,1.2c-3.4,0-6,0.8-7.9,2.4c-1.7,2.8-4.5,5.1-8.4,6.9
							c-1.7,3.2-2.6,7-2.6,11.3c0.9,18.1,13.1,29.8,37,35.8l0.1,0c13,4.9,18.9,11.9,17.5,20.7c0.7,4.7-0.1,8.4-2.4,11.1
							c-2.6,3.1-7.2,4.7-13.6,4.9c0,0,0,0,0,0c-0.8,0-1.6,0-2.4-0.1c-9.9-1-21.3-9.4-34.9-25.9v36.2c2.9-0.3,6.4-1.7,10.3-4.1
							L133.4,247.3z"/>
					</g>
					<g>
						<path class="st1" d="M289.8,146c4.7-2.9,8.8-4.3,12.2-4.3v41.3c-14.2-17.9-26.3-27.5-36.4-28.7v0.4c-0.8,0-1.6,0-2.3,0
							c-11.5,4-17.3,11.2-17.3,21.5V212c0,17.4,7.7,26.2,23,26.2h0.4v0.2c9-3.1,19.6-12.3,31.7-27.6v41.3c-3.4,0-7.5-1.4-12.2-4.3
							c-8.6,2.9-15.1,5-19.4,6.5c-1.1,0.2-2.2,0.5-3.2,0.7c-32,0-50.2-19.9-54.5-59.8c0-21.5,11.4-38.2,34.3-50.2
							c0.6-3.2,2.6-4.8,5.8-4.8C267.9,138.5,280.5,140.5,289.8,146z"/>
						<path class="st0" d="M266.3,256.2c-32.6,0-51.4-20.5-55.8-60.9l0-0.1c0-21.8,11.6-38.9,34.5-51c0.9-3.4,3.2-5.2,6.8-5.2
							c15.8-1.6,28.6,0.2,38,5.5c4.6-2.7,8.7-4.1,12.2-4.1l1.3,1.3v41.3l-2.3,0.8c-13.7-17.3-25.4-26.7-35-28.1l-0.3,0.3h-2.1
							c-10.9,3.8-16.2,10.4-16.2,20.2V212c0,16.7,7.1,24.9,21.7,24.9h0.4l0.1,0.1c8.6-3.2,18.9-12.3,30.5-27l2.3,0.8v41.3l-1.3,1.3
							c-3.5,0-7.7-1.4-12.4-4.2l-19,6.3c-1.1,0.2-2.2,0.5-3.2,0.7L266.3,256.2z M213.1,195.1c4.3,39.3,21.6,58.5,53,58.5
							c1-0.2,2-0.5,3-0.7l19.4-6.5l1.1,0.1c3.9,2.4,7.3,3.7,10.3,4.1v-36.2c-11.2,13.7-21.3,22.1-29.9,25.1l-0.4-0.3v0.1h-0.4
							c-16.2,0-24.3-9.2-24.3-27.5v-35.9c0-10.9,6.1-18.5,18.2-22.7l0.4-0.1h2l0.4-0.3c10,1.2,21.4,9.8,34.9,26.3V143
							c-2.9,0.3-6.4,1.7-10.3,4.1l-1.3,0c-9-5.3-21.5-7.2-37.1-5.6l-0.1,0c-2.6,0-4,1.2-4.5,3.8l-0.7,0.9
							C224.5,157.8,213.2,174.3,213.1,195.1z"/>
					</g>
					<g>
						<path class="st1" d="M306.6,140.2h21.5c4.2,0.2,6.4,0.8,6.4,1.9c4.6-0.6,8-1,10.1-1c5.4,0,11.8,0.6,19,1.9
							c0.6-1.9,4-2.9,10.2-2.9H399c0,1.3,0.4,1.9,1.2,1.9l-1.2,1.9V179l1.2,6.6l-2.5,1c-13.1-21-20.7-31.8-22.8-32.2h-22.7v35l2.5-1
							h5l2.5,1c0.8-1.8,5.4-4.1,13.9-6.7h2.5v1c0,4.7-0.4,15.8-1.2,33.1c0.8,1.2,1.2,2.1,1.2,2.8l-17.8-16h-8.8v37.7
							c0.6,0,3.1,0.3,7.6,1c8.6-0.6,13.7-1.2,15.1-1.8c0,0.6,0.4,0.8,1.3,0.8c4-8.2,8.2-12.2,12.7-12.2v-1c0-2.1-0.4-3.6-1.3-4.7
							c3.4-10.9,7.2-17.5,11.4-19.8c0,5.6,0.4,8.4,1.2,8.4l-1.2,1.9v38.8l1.2,1.9l-2.5,0.8h-25.3c-0.8,0-1.2,0.3-1.2,1l-2.5-1h-16.4
							l-6.4-0.8v0.8l-2.5-0.8c-3.6,0-15.8,0.6-36.7,1.8l-1.3-1.8c0-0.6,5.1-4.4,15.2-11.4v-26.4c0-12.2,1.2-23,3.7-32.2
							c-2.5-6.7-3.7-12.4-3.7-16.9v-15.1l-13.9-10.4V140.2z"/>
						<path class="st0" d="M306.7,257.7l-1.1-0.5l-1.3-1.8l-0.3-0.8c0-0.9,0-1.6,15.2-12.1v-25.7c0-12.1,1.2-22.9,3.7-32.1
							c-2.4-6.7-3.7-12.4-3.7-17v-14.5l-13.4-10l-0.5-1v-1.9l1.3-1.3h21.5c3,0.1,6,0.4,7.1,1.8c4.2-0.6,7.3-0.8,9.3-0.8
							c5.2,0,11.4,0.6,18.2,1.8c1.4-1.9,4.9-2.7,10.9-2.7H399l1.3,1.3c0,0.6,0.1,0.7,0.1,0.7c0-0.1-0.1-0.1-0.2-0.1l1.1,2l-1,1.6
							v34.4l1.2,6.5l-0.8,1.5l-2.5,1l-1.6-0.5c-16.6-26.6-20.8-31-21.9-31.5h-21.2v31.8l0.8-0.3l0.5-0.1h5l0.5,0.1l1.6,0.6
							c1.3-1.5,4.7-3.5,14-6.4l0.4-0.1h2.5l1.3,1.3v1c0,4.7-0.4,15.4-1.2,32.8c0.8,1.3,1.2,2.3,1.2,3.1l-2.2,1l-17.4-15.6h-7v35.2
							c1.1,0.1,2.9,0.4,6.3,0.8c10.4-0.8,13.7-1.4,14.6-1.7l1,0.7c3.8-7.5,7.8-11.4,12.2-12.1c0-1.6-0.4-2.8-1-3.6l-0.2-1.2
							c3.5-11.3,7.4-18,12-20.6l1.9,1.1c0,6.1,0.5,7.3,0.6,7.4c-0.1-0.1-0.3-0.3-0.7-0.3l1.1,2l-1,1.6v38l1,1.6l-0.7,1.9l-2.5,0.8
							l-0.4,0.1h-25.3c-0.1,0-0.2,0-0.2,0c0.1,0,0.3-0.2,0.3-0.4l-1.8,1.2l-2.3-0.9l-16.4,0l-5.6-0.7l-1,0.7l-2.3-0.8
							C339.3,255.9,327.1,256.5,306.7,257.7z M307,254.6l0.3,0.4c20.7-1.2,32.5-1.8,36.1-1.8l0.4,0.1l1.6,0.5l0.7-0.6l6.3,0.8h16.4
							l0.5,0.1l1.4,0.5c0.4-0.4,1-0.6,1.8-0.6h25.1l0.7-0.2l-0.3-0.5l-0.2-0.7v-38.8l0.2-0.7l0.7-1.1c-0.5-1.1-0.8-3-0.8-6
							c-3.1,2.9-6,8.6-8.7,17c0.8,1.2,1.2,2.9,1.2,4.9v1l-1.3,1.3c-3.9,0-7.8,3.9-11.5,11.5l-1.2,0.7c-1,0-1.6-0.3-2-0.6
							c-1.7,0.4-5.4,0.9-14.4,1.6l-0.3,0c-6-0.9-7.2-0.9-7.4-0.9l-1.3-1.3v-37.7l1.3-1.3h8.8l0.9,0.3l14.4,13
							c0.7-16.2,1.1-26.8,1.1-31.6h-1c-11.1,3.5-12.7,5.4-12.9,5.9l-1.7,0.7l-2.3-0.9H355l-2.3,0.9l-1.8-1.2v-35l1.3-1.3l22.9,0
							c1.3,0.2,3.6,0.7,23.1,31.8l0.5-0.2l-1-5.8v-34.9l0.2-0.7l0.5-0.8c-0.2-0.3-0.4-0.6-0.5-1.1h-24.2c-8,0-8.9,1.6-8.9,1.9
							l-1.5,0.9c-7.1-1.3-13.4-1.9-18.7-1.9c-2,0-5.3,0.3-9.9,0.9l-1.5-1.3c0,0.1,0.1,0.2,0.1,0.3c0,0-0.7-0.7-5.2-0.9l-20.1,0
							l13.3,10l0.5,1v15.1c0,4.4,1.2,9.9,3.6,16.5l0,0.8c-2.4,9-3.7,19.7-3.7,31.8v26.4l-0.6,1.1C311.4,251,308.1,253.6,307,254.6z"
							/>
					</g>
					<g>
						<path class="st1" d="M402.4,140.2h22.9c9.6,0,17.8,7.4,24.7,22.1l22.4,28.7v-39.7c-1.1,0-5.2-2.2-12.4-6.6v-4.4h51.7v4.4
							c-9.4,0-14.2,5.2-14.2,15.5v17.6c0,4.4,0.6,6.6,1.8,6.6l-1.8,11v48.2l1.8,15.5l-3.6,2.2c-14-19.8-30-41-47.9-63.7
							c0-2.2-1.8-4.4-5.3-6.6v55.3c8.2,3,12.2,5.9,12.2,8.8h-50.8c0-2.9,4.1-5.8,12.4-8.8v-95l-14.2-6.6V140.2z"/>
						<path class="st0" d="M496.5,262.4l-1.7-0.4c-13.9-19.6-30-41.1-47.8-63.7l-0.3-0.8c0-1.2-0.9-2.6-2.7-4.1v51.9
							c8.3,3.1,12.2,6.2,12.2,9.7l-1.3,1.3h-50.8l-1.3-1.3c0-3.5,3.9-6.5,12.4-9.7v-93.3l-13.4-6.2l-0.8-1.2v-4.4l1.3-1.3h22.9
							c10.1,0,18.8,7.6,25.8,22.7l20,25.6v-34.9c-1.6-0.6-4.8-2.2-11.7-6.5l-0.6-1.1v-4.4l1.3-1.3h51.7l1.3,1.3v4.4l-1.3,1.3
							c-8.6,0-12.9,4.6-12.9,14.2v17.6c0,4.6,0.7,5.3,0.7,5.4c0,0-0.1-0.1-0.2-0.1l1.3,1.5l-1.8,10.9v48.1l1.8,15.4l-0.6,1.3
							L496.5,262.4z M449.3,197.1c17.5,22.1,33.2,43.1,47,62.5l1.8-1.1l-1.7-14.8l0-48.4l1.6-10c-1.4-1.2-1.7-4.3-1.7-7.4v-17.6
							c0-10.5,4.9-16.3,14.2-16.8v-1.9h-49.1v2.4c8.9,5.5,10.7,6,11.1,6l1.3,1.3V191l-2.3,0.8l-22.6-28.9
							c-6.6-14.2-14.5-21.3-23.5-21.3h-21.6v2.3l13.4,6.2l0.8,1.2v95l-0.9,1.2c-7.3,2.6-10.1,4.8-11,6.2h47.2
							c-0.9-1.5-3.7-3.6-10.9-6.2l-0.9-1.2V191l2-1.1C447.1,192.2,449,194.6,449.3,197.1z"/>
					</g>
					<g>
						<path class="st1" d="M516.6,140.6c5.3,0,9.8,0.5,13.6,1.4c25.4-1,45.5-1.4,60.5-1.4H624l7.6,8.4c0.3-1.8,1.3-2.8,3-2.8
							l1.6,2.8v60.7H633c-5-11.1-7.6-18.6-7.6-22.6v-5.6c-5,0-10.1-6.6-15.1-19.8h-16.6v71.9c0,5.2-0.5,11.8-1.6,19.8
							c1,1.6,1.6,3.5,1.6,5.6c-1,12.7-1.6,21.6-1.6,26.8c0,8.2,7.1,16.2,21.2,24v2.8h-75.7v-1.4c12.1-8.3,18.1-14.9,18.1-19.7
							c0-2.2,0.5-4,1.6-5.6c-1-10.3-1.6-19.2-1.6-26.8v-1.4c0-15.7,1.5-34.5,4.6-56.4c-3-16.9-4.6-30-4.6-39.5h-15.1
							c-3.6,3.6-11.6,19.6-24.1,48H515v-59.3L516.6,140.6z"/>
						<path class="st0" d="M613.4,313.8h-75.7l-1.3-1.3v-1.4l0.6-1.1c14.5-10,17.6-15.6,17.6-18.6c0-2.2,0.5-4.2,1.5-5.9
							c-1-10.1-1.5-19-1.5-26.4v-1.4c0-15.6,1.5-34.6,4.5-56.4c-2.9-16-4.4-28.8-4.5-38.2h-13.3c-3.6,4.2-11.5,20-23.5,47.2
							l-1.2,0.8H515l-1.3-1.3l0-59.5l1.6-9.8l1.3-1.1c5.3,0,9.9,0.5,13.7,1.4c25.2-1,45.5-1.4,60.3-1.4H624l1,0.4l6.2,6.8
							c0.8-1.1,1.9-1.6,3.4-1.6l1.1,0.7l1.6,2.8l0.2,0.6v60.7l-1.3,1.3H633l-1.2-0.8c-5.2-11.4-7.7-19-7.7-23.1v-4.5
							c-5.1-0.9-9.9-7.4-14.7-19.7H595v70.6c0,5.1-0.5,11.7-1.5,19.5c1,1.7,1.5,3.7,1.5,5.9c-1,12.7-1.6,21.7-1.6,26.8
							c0,7.7,6.9,15.4,20.6,22.9l0.7,1.1v2.8L613.4,313.8z M539.8,311.2h72.3v-0.7c-14.1-7.9-21.2-16.2-21.2-24.8
							c0-5.1,0.5-14.2,1.6-26.9c0-1.8-0.4-3.4-1.4-4.8l-0.2-0.9c1-7.9,1.6-14.5,1.6-19.6v-71.9l1.3-1.3h16.6l1.2,0.8
							c6,15.7,10.9,19,13.9,19l1.3,1.3v5.6c0,3.6,2.4,10.8,7.1,21.3h1v-59.1l-1-1.7c-0.5,0.2-0.8,0.6-1,1.6l-2.3,0.7l-7.2-8h-32.8
							c-14.9,0-35.2,0.5-60.4,1.4l-0.4,0c-3.4-0.9-7.4-1.3-12.1-1.4l-1.4,8.6V207c12.1-27.5,19.8-42.6,23.5-46.3l0.9-0.4h15.1
							l1.3,1.3c0,9.3,1.5,22.5,4.5,39.2l0,0.4c-3,21.7-4.5,40.7-4.5,56.2v1.4c0,7.5,0.5,16.4,1.6,26.6l-0.2,0.8
							c-0.9,1.4-1.3,3-1.3,4.9C557.1,296.5,551.4,303,539.8,311.2z"/>
					</g>
				</g>
			</g>
			<g>
				<g>
					<path class="st1" d="M405.3,271.1l-45.1,1.8l-15.4-1.8h-34.6l-4.5,1.8l-8.2-1.8h-40.7h-16l-15.4,1.6l-5.4-1.6h-38.8v0l-4.1,6.2
						l-1.5,6.8l-3.3,0.4l-5.3,8.1l5.2,7.9l4.4,4.1l0.4,3.3l4.1,6.3v0h22.5l5.8-1.7l10.2,1.7h23.1l23-1.8l6,1.8h33l2.6-1.7l12.6,1.7
						h23.9h34.6l25.2-2l9,2h10.1h26l20.6-1.1l7.3,1.1h21.4l5.2-7.9l-0.1-2.2l3.9-3.6l5.1-7.8l-5.5-8.5l-2.2-1.1l-2.2-5.6l-4.2-6.3
						h-17.9l-28.8,0.8l-17.5-0.8H405.3z"/>
					<path class="st0" d="M498.1,315.5l-21.6,0l-7.1-1.1l-20.5,1.1l-36.2,0l-0.3,0l-8.8-2l-25,2l-58.7,0l-0.2,0l-12.2-1.6l-2.2,1.4
						l-0.7,0.2h-33l-0.4-0.1l-5.7-1.8l-22.8,1.8l-23.2,0l-0.2,0l-10-1.6l-5.8,1.6h-22.5l-1.1-0.6l-4.1-6.3l-0.2-0.6l-0.4-2.9l-4.3-4
						l-5.2-7.9V292l5.3-8.1l0.9-0.6l2.4-0.3l1.3-5.9l0.2-0.4l4.1-6.2l1.1-0.6l38.8,0l0.4,0.1l5.2,1.5l15.1-1.6l56.8,0l0.3,0l7.8,1.7
						l4.2-1.7l0.5-0.1l34.7,0l15.3,1.8l45.1-1.8h28.6l17.5,0.8l28.7-0.8l18,0l1.1,0.6l4.3,6.6l2,5.2l1.8,0.9l0.5,0.5l5.5,8.5v1.4
						l-5.3,8.1l-3.4,3.2l0.1,1.6l-0.2,0.8l-5.2,7.9L498.1,315.5z M476.8,312.9h20.6l4.6-7l-0.1-1.7l0.4-1l3.8-3.5l4.6-7l-4.9-7.5
						l-1.9-0.9l-0.6-0.7l-2.1-5.5l-3.7-5.6h-17.2l-28.8,0.8l-17.6-0.8l-28.5,0l-45.1,1.8l-0.2,0l-15.3-1.8h-34.2l-4.3,1.7l-0.8,0.1
						l-8.1-1.8h-56.6l-15.3,1.6L225,274l-5.3-1.6h-37.9l-3.5,5.4l-1.4,6.6l-1.1,1l-2.7,0.4l-4.5,6.9l4.6,7l4.3,4l0.4,0.8l0.4,3
						l3.5,5.4h21.6l5.6-1.6l0.6,0l10.1,1.6h23l22.9-1.8l0.5,0.1l5.8,1.8h32.4l2.3-1.5l0.9-0.2l12.6,1.7h58.5l25.1-2l0.4,0l8.9,2h36
						l20.5-1.1l0.3,0L476.8,312.9z"/>
				</g>
			</g>
		</g>
		<g>
			<line class="st2" x1="488.1" y1="286.5" x2="488.1" y2="284.3"/>
		</g>
		<g>
			<path class="st2" d="M215.9,284.3h-3.6l-5.4,15.3l-1.3,0.2v2.1h6v-2.1l-1.2-0.2l0.8-2.4h5.7l0.8,2.4l-1.2,0.2v2.1h6v-2.1
				l-1.3-0.2L215.9,284.3z M212,294.6l2-6.2h0.1l2,6.2H212z"/>
			<polygon class="st2" points="232,289 234.7,289 234.8,287.1 238.1,287.1 238.1,299.5 236.2,299.8 236.2,302 243.5,302 
				243.5,299.8 241.6,299.5 241.6,287.1 244.8,287.1 245,289 247.7,289 247.7,284.3 232,284.3 			"/>
			<path class="st2" d="M264.8,299.4c-0.2-0.2-0.2-0.5-0.2-0.9v-0.9c0-1.1-0.2-1.9-0.7-2.7c-0.5-0.7-1.2-1.2-2.2-1.5
				c0.9-0.4,1.6-0.9,2.1-1.6c0.5-0.7,0.7-1.4,0.7-2.3c0-1.6-0.6-2.9-1.7-3.8c-1.1-0.9-2.7-1.4-4.7-1.4h-6h-1.9v2.1l1.9,0.4v12.7
				l-1.9,0.4v2.1h7.3v-2.1l-1.9-0.4v-4.7h2.9c0.8,0,1.5,0.3,1.9,0.8c0.5,0.5,0.7,1.2,0.7,2v1c0,1,0.2,1.8,0.7,2.4
				c0.5,0.6,1.3,0.9,2.4,0.9h1.8v-2.1l-0.4-0.1C265.2,299.7,264.9,299.6,264.8,299.4z M260.2,291.5c-0.5,0.4-1.2,0.6-2.2,0.6h-2.4
				v-5h2.5c1,0,1.7,0.2,2.2,0.7c0.5,0.5,0.7,1.1,0.7,1.9C260.9,290.5,260.7,291.1,260.2,291.5z"/>
			<polygon class="st2" points="279.5,299.3 273.8,299.3 273.8,294.2 279.8,294.2 279.8,291.5 273.8,291.5 273.8,287.1 279.4,287.1 
				279.6,289.2 282.3,289.2 282.3,284.3 270.3,284.3 268.4,284.3 268.4,286.5 270.3,286.8 270.3,299.5 268.4,299.8 268.4,302 
				282.3,302 282.3,297.1 279.6,297.1 			"/>
			<path class="st2" d="M295.5,284.3h-3.6l-5.4,15.3l-1.3,0.2v2.1h6v-2.1l-1.2-0.2l0.8-2.4h5.7l0.8,2.4l-1.2,0.2v2.1h6v-2.1
				l-1.3-0.2L295.5,284.3z M291.7,294.6l2-6.2h0.1l2,6.2H291.7z"/>
			<path class="st2" d="M312.2,291.7c-1.4-0.4-2.3-0.8-2.9-1.2c-0.6-0.4-0.8-0.9-0.8-1.5c0-0.6,0.3-1.2,0.8-1.6
				c0.5-0.4,1.3-0.6,2.2-0.6c0.7,0,1.3,0.1,1.9,0.2c0.6,0.1,1,0.3,1.3,0.5l0.5,2.4h2.7v-3.6c-0.8-0.7-1.7-1.2-2.8-1.6
				c-1.1-0.4-2.3-0.6-3.7-0.6c-1.8,0-3.4,0.5-4.6,1.4c-1.2,0.9-1.8,2.1-1.8,3.5c0,1.4,0.5,2.6,1.6,3.4c1.1,0.8,2.7,1.6,4.7,2.2
				c1.2,0.4,2,0.8,2.5,1.2c0.5,0.4,0.7,1,0.7,1.6c0,0.7-0.3,1.2-0.8,1.6c-0.5,0.4-1.2,0.6-2.2,0.6c-0.8,0-1.4-0.1-2-0.3
				c-0.6-0.2-1.1-0.4-1.4-0.7l-0.4-2.5H305v3.7c0.8,0.8,1.7,1.4,2.8,1.8c1.1,0.4,2.4,0.7,3.8,0.7c2,0,3.5-0.4,4.7-1.3
				c1.2-0.9,1.8-2.1,1.8-3.6c0-1.4-0.5-2.6-1.5-3.5C315.6,293,314.2,292.2,312.2,291.7z"/>
			<path class="st2" d="M331.2,286.5l1.9,0.4v9.2c0,1.2-0.3,2-0.9,2.6c-0.6,0.6-1.5,0.9-2.6,0.9c-1.1,0-1.9-0.3-2.6-0.9
				c-0.6-0.6-0.9-1.4-0.9-2.6v-9.2l1.9-0.4v-2.1H326h-3.5h-1.9v2.1l1.9,0.4v9.2c0,2,0.6,3.5,1.9,4.6c1.3,1.1,3,1.6,5.1,1.6
				c2.1,0,3.8-0.5,5.1-1.6c1.3-1.1,2-2.6,2-4.6v-9.2l1.9-0.4v-2.1h-7.3V286.5z"/>
			<path class="st2" d="M355.5,299.4c-0.2-0.2-0.2-0.5-0.2-0.9v-0.9c0-1.1-0.2-1.9-0.7-2.7c-0.5-0.7-1.2-1.2-2.2-1.5
				c0.9-0.4,1.6-0.9,2.1-1.6c0.5-0.7,0.7-1.4,0.7-2.3c0-1.6-0.6-2.9-1.7-3.8c-1.1-0.9-2.7-1.4-4.7-1.4h-6h-1.9v2.1l1.9,0.4v12.7
				l-1.9,0.4v2.1h7.3v-2.1l-1.9-0.4v-4.7h2.9c0.8,0,1.5,0.3,1.9,0.8c0.5,0.5,0.7,1.2,0.7,2v1c0,1,0.2,1.8,0.7,2.4
				c0.5,0.6,1.3,0.9,2.4,0.9h1.8v-2.1l-0.4-0.1C355.9,299.7,355.6,299.6,355.5,299.4z M350.8,291.5c-0.5,0.4-1.2,0.6-2.2,0.6h-2.4
				v-5h2.5c1,0,1.7,0.2,2.2,0.7c0.5,0.5,0.7,1.1,0.7,1.9C351.6,290.5,351.3,291.1,350.8,291.5z"/>
			<polygon class="st2" points="370.2,299.3 364.5,299.3 364.5,294.2 370.4,294.2 370.4,291.5 364.5,291.5 364.5,287.1 370.1,287.1 
				370.3,289.2 373,289.2 373,284.3 360.9,284.3 359.1,284.3 359.1,286.5 360.9,286.8 360.9,299.5 359.1,299.8 359.1,302 373,302 
				373,297.1 370.3,297.1 			"/>
			<path class="st2" d="M394.9,291.7c-1.4-0.4-2.3-0.8-2.9-1.2c-0.6-0.4-0.8-0.9-0.8-1.5c0-0.6,0.3-1.2,0.8-1.6
				c0.5-0.4,1.3-0.6,2.2-0.6c0.7,0,1.3,0.1,1.9,0.2c0.6,0.1,1,0.3,1.3,0.5l0.5,2.4h2.7v-3.6c-0.8-0.7-1.7-1.2-2.8-1.6
				c-1.1-0.4-2.3-0.6-3.7-0.6c-1.8,0-3.4,0.5-4.6,1.4c-1.2,0.9-1.8,2.1-1.8,3.5c0,1.4,0.5,2.6,1.6,3.4c1.1,0.8,2.7,1.6,4.7,2.2
				c1.2,0.4,2,0.8,2.5,1.2c0.5,0.4,0.7,1,0.7,1.6c0,0.7-0.3,1.2-0.8,1.6c-0.5,0.4-1.2,0.6-2.2,0.6c-0.8,0-1.4-0.1-2-0.3
				c-0.6-0.2-1.1-0.4-1.4-0.7l-0.4-2.5h-2.7v3.7c0.8,0.8,1.7,1.4,2.8,1.8c1.1,0.4,2.4,0.7,3.8,0.7c2,0,3.5-0.4,4.7-1.3
				c1.2-0.9,1.8-2.1,1.8-3.6c0-1.4-0.5-2.6-1.5-3.5C398.3,293,396.8,292.2,394.9,291.7z"/>
			<polygon class="st2" points="403.2,289 405.9,289 406.1,287.1 409.3,287.1 409.3,299.5 407.4,299.8 407.4,302 414.8,302 
				414.8,299.8 412.9,299.5 412.9,287.1 416.1,287.1 416.3,289 419,289 419,284.3 403.2,284.3 			"/>
			<path class="st2" d="M429.1,284.1c-2.4,0-4.3,0.8-5.8,2.5s-2.2,3.8-2.2,6.4v0.3c0,2.6,0.7,4.7,2.2,6.4c1.5,1.7,3.4,2.5,5.8,2.5
				c2.4,0,4.3-0.8,5.8-2.5c1.5-1.7,2.2-3.8,2.2-6.4V293c0-2.6-0.7-4.7-2.2-6.4S431.5,284.1,429.1,284.1z M433.6,293.3
				c0,1.9-0.4,3.4-1.1,4.5c-0.7,1.1-1.9,1.7-3.4,1.7c-1.5,0-2.6-0.6-3.3-1.7c-0.7-1.1-1.1-2.6-1.1-4.5V293c0-1.8,0.4-3.3,1.1-4.5
				c0.7-1.1,1.8-1.7,3.3-1.7s2.6,0.6,3.4,1.7c0.8,1.1,1.1,2.6,1.1,4.4V293.3z"/>
			<path class="st2" d="M454.5,299.4c-0.2-0.2-0.2-0.5-0.2-0.9v-0.9c0-1.1-0.2-1.9-0.7-2.7c-0.5-0.7-1.2-1.2-2.2-1.5
				c0.9-0.4,1.6-0.9,2.1-1.6c0.5-0.7,0.7-1.4,0.7-2.3c0-1.6-0.6-2.9-1.7-3.8c-1.1-0.9-2.7-1.4-4.7-1.4h-6h-1.9v2.1l1.9,0.4v12.7
				l-1.9,0.4v2.1h7.3v-2.1l-1.9-0.4v-4.7h2.9c0.8,0,1.5,0.3,1.9,0.8c0.5,0.5,0.7,1.2,0.7,2v1c0,1,0.2,1.8,0.7,2.4
				c0.5,0.6,1.3,0.9,2.4,0.9h1.8v-2.1l-0.4-0.1C454.9,299.7,454.6,299.6,454.5,299.4z M449.9,291.5c-0.5,0.4-1.2,0.6-2.2,0.6h-2.4
				v-5h2.5c1,0,1.7,0.2,2.2,0.7c0.5,0.5,0.7,1.1,0.7,1.9C450.6,290.5,450.4,291.1,449.9,291.5z"/>
			<polygon class="st2" points="466,284.3 466,286.5 467.4,286.7 464.7,292.5 464.6,292.5 461.9,286.7 463.3,286.5 463.3,284.3 
				456.6,284.3 456.6,286.5 458.1,286.7 462.8,295.6 462.8,299.5 460.9,299.8 460.9,302 468.2,302 468.2,299.8 466.4,299.5 
				466.4,295.8 471.1,286.7 472.6,286.5 472.6,284.3 			"/>
		</g>
	</g>
</g>
</svg>
